<svg width="28" height="28" viewBox="0 0 28 28" fill="none" xmlns="http://www.w3.org/2000/svg">
<path d="M23.3745 19.8735L19.8745 23.3735C19.7065 23.5341 19.4834 23.6241 19.251 23.6251C19.1349 23.6246 19.0199 23.6023 18.912 23.5595C18.7527 23.4925 18.6168 23.38 18.5215 23.2359C18.4261 23.0919 18.3755 22.9229 18.376 22.7501V20.1251H5.25102C5.01895 20.1251 4.79639 20.0329 4.6323 19.8688C4.4682 19.7047 4.37602 19.4822 4.37602 19.2501C4.37602 19.018 4.4682 18.7955 4.6323 18.6314C4.79639 18.4673 5.01895 18.3751 5.25102 18.3751H18.376V15.7501C18.3755 15.5774 18.4261 15.4083 18.5215 15.2643C18.6168 15.1203 18.7527 15.0077 18.912 14.9407C19.0736 14.8777 19.2497 14.8617 19.4201 14.8946C19.5904 14.9275 19.7479 15.008 19.8745 15.1267L23.3745 18.6267C23.5388 18.7926 23.6309 19.0166 23.6309 19.2501C23.6309 19.4836 23.5388 19.7077 23.3745 19.8735ZM8.12758 12.8735C8.29554 13.0341 8.51867 13.1241 8.75102 13.1251C8.86714 13.1246 8.98215 13.1023 9.09008 13.0595C9.24933 12.9925 9.3852 12.88 9.48058 12.7359C9.57595 12.5919 9.62656 12.4229 9.62602 12.2501V9.62511H22.751C22.9831 9.62511 23.2056 9.53292 23.3697 9.36883C23.5338 9.20473 23.626 8.98218 23.626 8.75011C23.626 8.51805 23.5338 8.29549 23.3697 8.13139C23.2056 7.9673 22.9831 7.87511 22.751 7.87511H9.62602V5.25011C9.62656 5.07736 9.57595 4.90832 9.48058 4.76429C9.3852 4.62025 9.24933 4.50767 9.09008 4.44074C8.92846 4.3777 8.75229 4.3617 8.58196 4.39461C8.41163 4.42751 8.25409 4.50797 8.12758 4.62667L4.62758 8.12667C4.46327 8.29257 4.37109 8.51662 4.37109 8.75011C4.37109 8.9836 4.46327 9.20765 4.62758 9.37355L8.12758 12.8735Z" fill="#4D0B6C"/>
</svg>
