<svg width="28" height="28" viewBox="0 0 28 28" fill="none" xmlns="http://www.w3.org/2000/svg">
<path d="M26.6871 6.12489V11.3749C26.6871 11.723 26.5488 12.0568 26.3027 12.303C26.0565 12.5491 25.7227 12.6874 25.3746 12.6874H20.1246C19.7765 12.6874 19.4427 12.5491 19.1965 12.303C18.9504 12.0568 18.8121 11.723 18.8121 11.3749C18.8121 11.0268 18.9504 10.693 19.1965 10.4468C19.4427 10.2007 19.7765 10.0624 20.1246 10.0624H21.9949L19.9168 8.16145C19.9026 8.14833 19.8883 8.1352 19.8752 8.12098C18.9116 7.158 17.7262 6.44659 16.4231 6.04935C15.12 5.65212 13.7393 5.58123 12.4024 5.84292C11.0655 6.10462 9.81335 6.69087 8.75622 7.55011C7.69909 8.40935 6.86934 9.51523 6.33997 10.7704C5.8106 12.0257 5.59784 13.3918 5.72041 14.7485C5.84298 16.1053 6.29712 17.4111 7.04288 18.5511C7.78864 19.6912 8.80315 20.6304 9.99715 21.2863C11.1912 21.9422 12.5281 22.2945 13.8902 22.3124H13.9996C16.1214 22.3175 18.1638 21.506 19.7035 20.0461C19.9566 19.807 20.2943 19.6781 20.6424 19.688C20.9905 19.6978 21.3204 19.8455 21.5596 20.0986C21.7988 20.3517 21.9276 20.6895 21.9178 21.0376C21.9079 21.3856 21.7602 21.7156 21.5071 21.9547C19.4803 23.8758 16.7922 24.9438 13.9996 24.9374H13.8498C12.0593 24.9122 10.3025 24.4477 8.7335 23.5849C7.1645 22.7221 5.83133 21.4872 4.85106 19.9888C3.87078 18.4904 3.27338 16.7742 3.1113 14.991C2.94923 13.2077 3.22745 11.412 3.92152 9.76135C4.6156 8.11075 5.7043 6.65579 7.09204 5.52424C8.47978 4.39269 10.1241 3.61915 11.8806 3.27155C13.6372 2.92395 15.4522 3.01291 17.1663 3.53063C18.8804 4.04835 20.4412 4.97899 21.7116 6.24083L24.0621 8.39114V6.12489C24.0621 5.77679 24.2004 5.44295 24.4465 5.19681C24.6927 4.95067 25.0265 4.81239 25.3746 4.81239C25.7227 4.81239 26.0565 4.95067 26.3027 5.19681C26.5488 5.44295 26.6871 5.77679 26.6871 6.12489Z" fill="#4D0B6C"/>
</svg>
