<svg width="31" height="31" viewBox="0 0 31 31" fill="none" xmlns="http://www.w3.org/2000/svg">
<path d="M21.7267 5.5402L25.4601 9.27354C25.6352 9.44867 25.7336 9.6862 25.7336 9.93387C25.7336 10.1815 25.6352 10.4191 25.4601 10.5942C25.2849 10.7693 25.0474 10.8677 24.7997 10.8677C24.5521 10.8677 24.3145 10.7693 24.1394 10.5942L21.9997 8.45337L21.9997 24.8672C21.9997 25.1147 21.9014 25.3521 21.7264 25.5272C21.5513 25.7022 21.3139 25.8005 21.0664 25.8005C20.8189 25.8005 20.5815 25.7022 20.4064 25.5272C20.2314 25.3521 20.1331 25.1147 20.1331 24.8672L20.1331 8.45337L17.9934 10.5942C17.8183 10.7693 17.5807 10.8677 17.3331 10.8677C17.0854 10.8677 16.8479 10.7693 16.6727 10.5942C16.4976 10.4191 16.3992 10.1815 16.3992 9.93387C16.3992 9.6862 16.4976 9.44867 16.6727 9.27354L20.4061 5.5402C20.4927 5.45343 20.5957 5.38458 20.709 5.33761C20.8223 5.29064 20.9437 5.26647 21.0664 5.26647C21.1891 5.26647 21.3105 5.29064 21.4238 5.33761C21.5371 5.38458 21.6401 5.45343 21.7267 5.5402ZM14.2601 21.7942C14.4352 21.6191 14.5336 21.3815 14.5336 21.1339C14.5336 20.8862 14.4352 20.6487 14.2601 20.4735C14.0849 20.2984 13.8474 20.2 13.5997 20.2C13.3521 20.2 13.1145 20.2984 12.9394 20.4735L10.7997 22.6144L10.7997 6.20054C10.7997 5.953 10.7014 5.7156 10.5264 5.54057C10.3513 5.36554 10.1139 5.2672 9.8664 5.2672C9.61887 5.2672 9.38147 5.36554 9.20644 5.54057C9.0314 5.7156 8.93307 5.953 8.93307 6.20054L8.93307 22.6144L6.7934 20.4735C6.61827 20.2984 6.38074 20.2 6.13307 20.2C5.8854 20.2 5.64787 20.2984 5.47274 20.4735C5.29761 20.6487 5.19922 20.8862 5.19922 21.1339C5.19922 21.3815 5.29761 21.6191 5.47274 21.7942L9.20607 25.5275C9.29275 25.6143 9.39569 25.6832 9.50899 25.7301C9.6223 25.7771 9.74375 25.8013 9.8664 25.8013C9.98906 25.8013 10.1105 25.7771 10.2238 25.7301C10.3371 25.6832 10.4401 25.6143 10.5267 25.5275L14.2601 21.7942Z" fill="#898989"/>
</svg>
