<svg width="34" height="34" viewBox="0 0 34 34" fill="none" xmlns="http://www.w3.org/2000/svg">
<path d="M10.3972 14.2875L17.001 7.68432L23.6068 14.2901L27.4493 10.4483L17.001 0L6.55535 10.445L10.3972 14.2868M0 17.001L3.84249 13.1578L7.68432 17.001L3.84183 20.8415L0 17.001ZM10.3972 19.7139L17.001 26.3163L23.6068 19.7105L27.4513 23.5504L17.001 34.002L6.55535 23.5557L6.55003 23.5497L10.3972 19.7132M26.3163 17.001L30.1582 13.1592L34.002 17.001L30.1602 20.8428L26.3163 17.001Z" fill="#F3BA2F"/>
<path d="M20.8949 17.0012L16.9993 13.0996L14.1171 15.9805L13.785 16.3125L13.103 16.9946L13.0977 16.9999L13.103 17.0052L16.9993 20.9008L20.8975 17.0025H20.8942" fill="#F3BA2F"/>
</svg>
