<svg width="104" height="100" viewBox="0 0 104 100" fill="none" xmlns="http://www.w3.org/2000/svg">
<path d="M99.2728 79.1667C99.2728 81.3768 98.3673 83.4964 96.7554 85.0592C95.1435 86.622 92.9573 87.5 90.6777 87.5H13.3217C11.0421 87.5 8.85591 86.622 7.24401 85.0592C5.63212 83.4964 4.72656 81.3768 4.72656 79.1667V33.3333C4.72656 31.1232 5.63212 29.0036 7.24401 27.4408C8.85591 25.878 11.0421 25 13.3217 25H30.5119L39.107 12.5H64.8924L73.4875 25H90.6777C92.9573 25 95.1435 25.878 96.7554 27.4408C98.3673 29.0036 99.2728 31.1232 99.2728 33.3333V79.1667Z" stroke="#8A8A8A" stroke-width="6" stroke-linecap="round" stroke-linejoin="round"/>
<path d="M51.9988 70.8333C61.4927 70.8333 69.189 63.3714 69.189 54.1667C69.189 44.9619 61.4927 37.5 51.9988 37.5C42.5049 37.5 34.8086 44.9619 34.8086 54.1667C34.8086 63.3714 42.5049 70.8333 51.9988 70.8333Z" stroke="#8A8A8A" stroke-width="6" stroke-linecap="round" stroke-linejoin="round"/>
</svg>
