<svg width="28" height="28" viewBox="0 0 28 28" fill="none" xmlns="http://www.w3.org/2000/svg">
<path d="M22.75 5.25H5.25C4.55469 5.25288 3.88869 5.53037 3.39703 6.02203C2.90537 6.51369 2.62788 7.17969 2.625 7.875V20.125C2.62788 20.8203 2.90537 21.4863 3.39703 21.978C3.88869 22.4696 4.55469 22.7471 5.25 22.75H22.75C23.4453 22.7471 24.1113 22.4696 24.603 21.978C25.0946 21.4863 25.3721 20.8203 25.375 20.125V7.875C25.3721 7.17969 25.0946 6.51369 24.603 6.02203C24.1113 5.53037 23.4453 5.25288 22.75 5.25ZM16.5703 13.65C16.4477 14.2411 16.1252 14.7718 15.657 15.1529C15.1888 15.5339 14.6036 15.742 14 15.742C13.3964 15.742 12.8112 15.5339 12.343 15.1529C11.8748 14.7718 11.5523 14.2411 11.4297 13.65C11.347 13.2553 11.1314 12.9009 10.8189 12.6461C10.5063 12.3913 10.1158 12.2515 9.7125 12.25H4.375V10.5H23.625V12.25H18.2875C17.8842 12.2515 17.4937 12.3913 17.1811 12.6461C16.8686 12.9009 16.653 13.2553 16.5703 13.65ZM5.25 7H22.75C22.9821 7 23.2046 7.09219 23.3687 7.25628C23.5328 7.42038 23.625 7.64294 23.625 7.875V8.75H4.375V7.875C4.375 7.64294 4.46719 7.42038 4.63128 7.25628C4.79538 7.09219 5.01794 7 5.25 7Z" fill="#4D0B6C"/>
</svg>
