<svg width="257" height="280" viewBox="0 0 257 280" fill="none" xmlns="http://www.w3.org/2000/svg">
<path d="M96.0898 149.53L134.435 128.313L181.07 155.242L142.732 176.459L96.0898 149.53Z" fill="#E0E0E0"/>
<path d="M216.443 214.543C237.875 214.543 255.249 204.673 255.249 192.498C255.249 180.323 237.875 170.453 216.443 170.453C195.011 170.453 177.637 180.323 177.637 192.498C177.637 204.673 195.011 214.543 216.443 214.543Z" fill="#E0E0E0"/>
<path d="M161.17 247.891L79.89 201.743L79.0416 202.238C70.6712 197.428 59.0541 194.448 46.2078 194.448C20.709 194.448 0 206.192 0 220.682C0 235.171 20.709 246.916 46.2078 246.916C47.0896 246.916 47.9714 246.916 48.8399 246.869L103.331 278.086C105.288 279.207 107.502 279.802 109.757 279.811C112.013 279.82 114.232 279.244 116.198 278.139L161.156 252.841C161.598 252.597 161.966 252.239 162.223 251.804C162.48 251.37 162.617 250.875 162.618 250.37C162.619 249.865 162.486 249.369 162.231 248.933C161.976 248.497 161.61 248.137 161.17 247.891Z" fill="#E0E0E0"/>
<path d="M169.134 61.9712C169.134 37.735 155.58 15.9705 137.616 5.60261C128.585 0.385278 120.675 -0.670214 115.03 2.64323L99.8792 11.3276C99.6053 11.4813 99.3314 11.6416 99.0642 11.8153L99.2312 11.7017L98.984 11.8487C93.6798 15.2757 90.5 22.7443 90.5 34.4816C90.5 58.945 104.061 80.4757 122.024 90.8502C131.05 96.0609 138.959 97.1698 144.604 93.8831L159.848 85.1653C160.022 85.0717 160.196 84.9715 160.37 84.8647L160.637 84.711C165.954 81.2907 169.134 73.8087 169.134 61.9712Z" fill="#BA68C8"/>
<path opacity="0.5" d="M143.243 93.1883C156.121 86.4384 157.062 62.8416 145.343 40.4833C133.625 18.125 113.685 5.47181 100.807 12.2217C87.9283 18.9715 86.988 42.5684 98.7065 64.9267C110.425 87.285 130.365 99.9381 143.243 93.1883Z" fill="white"/>
<path d="M129.484 57.0015C129.484 43.888 125.756 37.8223 122.022 35.6645C118.287 33.5068 114.566 35.2771 114.566 48.3571C114.566 61.4372 118.294 67.5364 122.022 69.6941C125.749 71.8518 129.484 70.115 129.484 57.0015Z" fill="#BA68C8"/>
<path opacity="0.3" d="M129.484 57.0015C129.484 43.888 125.756 37.8223 122.022 35.6645C118.287 33.5068 114.566 35.2771 114.566 48.3571C114.566 61.4372 118.294 67.5364 122.022 69.6941C125.749 71.8518 129.484 70.115 129.484 57.0015Z" fill="black"/>
<path d="M256.438 176.599C256.438 152.33 242.877 130.605 224.907 120.231C215.881 115.02 207.965 113.958 202.327 117.271L187.183 125.956C186.902 126.103 186.628 126.263 186.361 126.437L186.528 126.33L186.281 126.47C180.977 129.89 177.797 137.359 177.797 149.096C177.797 173.56 191.358 195.09 209.321 205.465C218.346 210.676 226.256 211.785 231.901 208.504L247.172 199.787L247.693 199.486L247.96 199.332C253.251 195.919 256.438 188.443 256.438 176.599Z" fill="#BA68C8"/>
<path opacity="0.5" d="M230.536 207.826C243.414 201.076 244.355 177.479 232.636 155.121C220.918 132.763 200.978 120.11 188.1 126.859C175.221 133.609 174.281 157.206 185.999 179.564C197.718 201.923 217.658 214.576 230.536 207.826Z" fill="white"/>
<path d="M216.784 171.629C216.784 158.515 213.057 152.449 209.322 150.298C205.588 148.147 201.867 149.904 201.867 162.991C201.867 176.078 205.595 182.177 209.322 184.328C213.05 186.479 216.784 184.749 216.784 171.629Z" fill="#BA68C8"/>
<path opacity="0.3" d="M216.784 171.629C216.784 158.515 213.057 152.449 209.322 150.298C205.588 148.147 201.867 149.904 201.867 162.991C201.867 176.078 205.595 182.177 209.322 184.328C213.05 186.479 216.784 184.749 216.784 171.629Z" fill="black"/>
<path d="M207.279 47.7822L191.694 56.7071L110.668 146.938L139.32 163.479L154.898 154.547L235.924 64.316L207.279 47.7822Z" fill="#BA68C8"/>
<path opacity="0.3" d="M220.339 73.248L139.32 163.479L154.899 154.548L235.924 64.3164L220.339 73.248Z" fill="black"/>
<path opacity="0.5" d="M191.694 56.707L220.339 73.2475L139.32 163.479L110.668 146.938L191.694 56.707Z" fill="white"/>
<path d="M78.7683 49.2854L80.3649 53.9616C80.5896 54.6352 81.0078 55.2277 81.5673 55.6651L85.1279 58.3372C86.464 59.3125 86.965 61.4703 86.0164 61.9913L83.4378 63.4009C83.2386 63.554 83.0887 63.7622 83.0067 63.9997C82.9248 64.2372 82.9144 64.4936 82.9769 64.737L83.5848 69.1861C83.8052 70.8227 82.4424 71.1902 81.2667 69.794L78.0802 66.0196C77.9089 65.7783 77.6879 65.5766 77.4321 65.4279C77.1763 65.2793 76.8916 65.1872 76.5972 65.1578L73.404 65.2513C72.2349 65.2914 70.8654 63.3474 71.0926 61.9713L71.7005 58.2236C71.7591 57.5578 71.5972 56.8911 71.2395 56.3264L68.6609 51.9375C67.7123 50.3208 68.2334 48.7643 69.5427 49.3054L73.11 50.7617C73.3113 50.8787 73.5507 50.9114 73.776 50.8526C74.0012 50.7937 74.1941 50.6482 74.3125 50.4477L75.9024 47.642C76.4903 46.5999 78.1604 47.5752 78.7683 49.2854Z" fill="#455A64"/>
<path d="M243.326 82.1458L244.923 86.822C245.149 87.493 245.565 88.0845 246.119 88.5255L249.686 91.1976C251.022 92.1729 251.516 94.3374 250.574 94.8517L247.989 96.268C247.79 96.4213 247.641 96.6298 247.561 96.8675C247.48 97.1051 247.471 97.3613 247.535 97.604L248.143 102.053C248.363 103.69 246.994 104.057 245.825 102.661L242.638 98.88C242.465 98.6398 242.242 98.4393 241.986 98.2918C241.729 98.1444 241.443 98.0534 241.149 98.0249L237.962 98.1184C236.793 98.1184 235.424 96.2145 235.644 94.8384L236.259 91.0907C236.328 90.4205 236.173 89.7462 235.818 89.1735L233.239 84.7778C232.29 83.1679 232.812 81.6113 234.121 82.1458L237.688 83.6088C237.89 83.724 238.129 83.7557 238.353 83.697C238.578 83.6383 238.771 83.4939 238.891 83.2948L240.494 80.489C241.048 79.4603 242.738 80.4356 243.326 82.1458Z" fill="#455A64"/>
<path d="M228.242 98.8129L229.224 101.685C229.365 102.101 229.623 102.467 229.965 102.741L232.17 104.384C232.985 104.986 233.306 106.322 232.718 106.642L231.141 107.517C231.014 107.614 230.919 107.747 230.868 107.898C230.817 108.049 230.812 108.212 230.854 108.366L231.228 111.118C231.368 112.127 230.52 112.347 229.798 111.492L227.794 109.154C227.688 109.004 227.551 108.88 227.392 108.789C227.232 108.697 227.055 108.642 226.872 108.626L224.902 108.686C224.18 108.686 223.332 107.504 223.472 106.682L223.846 104.364C223.882 103.952 223.784 103.54 223.566 103.189L221.969 100.476C221.381 99.4743 221.702 98.5123 222.517 98.8463L224.721 99.7482C224.846 99.8193 224.993 99.8388 225.132 99.8026C225.27 99.7664 225.389 99.6773 225.463 99.5544L226.452 97.8176C226.832 97.1495 227.875 97.7574 228.242 98.8129Z" fill="#455A64"/>
<path d="M68.7353 27.3072L69.7173 30.1798C69.8611 30.5956 70.1207 30.9618 70.4655 31.2352L72.67 32.8786C73.4783 33.4798 73.799 34.8159 73.2178 35.1366L71.6212 36.0117C71.4942 36.1068 71.3988 36.238 71.3475 36.3882C71.2963 36.5383 71.2915 36.7005 71.3339 36.8534L71.7147 39.6057C71.8483 40.6211 71.0066 40.8416 70.2784 39.9798L68.3078 37.6484C68.2018 37.4995 68.0654 37.3749 67.9076 37.2828C67.7498 37.1906 67.5743 37.1331 67.3926 37.1139L65.3885 37.1741C64.667 37.1741 63.8186 35.9983 63.9589 35.17L64.333 32.8519C64.3758 32.4395 64.2768 32.0248 64.0524 31.6762L62.4558 28.9573C61.8679 27.9619 62.1953 26.9999 63.0036 27.3339L65.2081 28.2358C65.3325 28.3069 65.4798 28.3264 65.6184 28.2902C65.757 28.254 65.8759 28.1649 65.9496 28.0421L66.9383 26.2985C67.3257 25.6438 68.3746 26.245 68.7353 27.3072Z" fill="#455A64"/>
<path d="M61.0947 118.781C61.0947 118.781 60.1996 157.914 53.8132 168.342C47.4268 178.77 20.8725 200.655 20.8725 200.655L16.3633 194.596C16.3633 194.596 30.6325 168.256 37.1591 165.016L42.2629 118.567L61.0947 118.781Z" fill="#263238"/>
<path d="M11.5078 214.611L15.0083 213.108L13.4919 210.222L11.5078 214.611Z" fill="#BA68C8"/>
<path d="M9.69584 202.231C9.20729 203.159 8.90757 204.174 8.81403 205.218L8.29297 211.049L11.5062 214.61L13.5103 210.221L9.69584 202.231Z" fill="#BA68C8"/>
<g style="mix-blend-mode:overlay" opacity="0.5">
<path d="M11.5078 214.611L15.0083 213.108L13.4919 210.222L11.5078 214.611Z" fill="black"/>
</g>
<g style="mix-blend-mode:overlay" opacity="0.2">
<path d="M9.69584 202.231C9.20729 203.159 8.90757 204.174 8.81403 205.218L8.29297 211.049L11.5062 214.61L13.5103 210.221L9.69584 202.231Z" fill="black"/>
</g>
<path d="M20.5865 187.295C20.5865 187.295 21.7756 193.935 27.7545 194.596C27.7545 194.596 28.5829 195.558 26.5721 197.703C24.5613 199.847 20.8738 204.33 20.8738 204.33C20.8738 204.33 21.2546 211.317 23.9668 213.956C25.3029 215.292 26.7124 216.628 27.7679 217.737C27.9764 217.947 28.1318 218.204 28.2215 218.486C28.3111 218.768 28.3323 219.067 28.2834 219.359C28.2344 219.65 28.1167 219.926 27.9399 220.164C27.7632 220.401 27.5324 220.593 27.2669 220.723C25.6266 221.531 23.7838 221.836 21.9708 221.598C20.1578 221.36 18.4558 220.591 17.0794 219.387L15.9905 218.432C14.8572 217.426 14.1422 216.031 13.9864 214.524L13.5188 210.235L9.85127 204.891C9.58971 204.508 9.4394 204.059 9.41699 203.596C9.39459 203.133 9.50097 202.672 9.72434 202.265C12.0291 198.063 19.0501 185.692 20.5865 187.295Z" fill="#BA68C8"/>
<path d="M37.8014 116.216C37.8014 116.216 25.6566 128.842 30.0656 144.12C34.4746 159.397 44.3414 180.38 44.3414 180.38C44.3414 180.38 42.8517 184.93 47.0136 194.596C51.1754 204.262 55.0299 215.025 55.0299 215.025C55.0299 215.025 59.0381 217.302 62.7524 213.334L52.1775 133.525C52.1775 133.525 60.2473 127.866 59.1918 118.474L37.8014 116.216Z" fill="#37474F"/>
<path d="M55.7852 225.112L57.2281 231.499L60.8756 233.483L60.7353 228.827L55.7852 225.112Z" fill="#BA68C8"/>
<path opacity="0.2" d="M55.7852 225.112L57.2281 231.499L60.8756 233.483L60.7353 228.827L55.7852 225.112Z" fill="black"/>
<path d="M60.8747 233.482L62.7117 232.273L60.7344 228.826L60.8747 233.482Z" fill="#BA68C8"/>
<path opacity="0.5" d="M60.8747 233.482L62.7117 232.273L60.7344 228.826L60.8747 233.482Z" fill="black"/>
<path d="M53.0923 209.807C53.0923 209.807 58.2295 212.159 62.0907 208.357L61.917 207.155C61.917 207.155 63.2531 206.761 63.7073 209.159C64.1616 211.557 66.5866 223.221 66.5866 223.221C66.5866 223.221 70.9622 228.853 74.1554 230.129C77.3486 231.405 77.9965 233.195 75.8989 234.751L75.8388 234.798C74.6185 235.704 73.1739 236.259 71.6611 236.404C70.1482 236.549 68.6246 236.278 67.2546 235.62L64.7762 234.437C63.7994 233.965 63.0109 233.176 62.5383 232.2L62.2377 231.578C61.4866 230.025 60.2978 228.724 58.8173 227.837L56.9869 226.742C56.6948 226.565 56.4406 226.333 56.2388 226.058C56.037 225.782 55.8917 225.47 55.8112 225.138L52.471 211.163C52.4073 210.902 52.4349 210.627 52.5492 210.384C52.6634 210.141 52.8574 209.945 53.099 209.827L53.0923 209.807Z" fill="#BA68C8"/>
<path d="M56.9994 165.149C56.7261 165.149 56.4604 165.059 56.2436 164.892C56.0268 164.726 55.8709 164.492 55.8002 164.228C55.7294 163.964 55.7477 163.684 55.8522 163.432C55.9567 163.179 56.1415 162.968 56.3782 162.831L96.1996 139.797C96.341 139.71 96.4985 139.653 96.6626 139.628C96.8267 139.602 96.9942 139.611 97.1552 139.651C97.3162 139.692 97.4673 139.765 97.5998 139.865C97.7322 139.965 97.8432 140.091 97.9263 140.234C98.0093 140.378 98.0627 140.537 98.0833 140.702C98.1039 140.867 98.0912 141.034 98.0461 141.194C98.0009 141.353 97.9243 141.502 97.8205 141.632C97.7168 141.762 97.5881 141.869 97.4421 141.948L57.6474 164.982C57.4499 165.094 57.2264 165.151 56.9994 165.149Z" fill="#37474F"/>
<path d="M58.9244 200.221C58.7071 200.222 58.4935 200.165 58.3057 200.056C58.1178 199.946 57.9624 199.789 57.8556 199.6C57.6904 199.315 57.6447 198.977 57.7286 198.659C57.8125 198.341 58.0191 198.069 58.3031 197.903L98.0978 174.876C98.2386 174.794 98.3941 174.741 98.5554 174.72C98.7167 174.698 98.8807 174.709 99.0379 174.751C99.1952 174.793 99.3427 174.865 99.4719 174.964C99.6012 175.063 99.7097 175.186 99.7913 175.327C99.8729 175.468 99.9259 175.623 99.9474 175.784C99.9689 175.946 99.9584 176.11 99.9166 176.267C99.8747 176.424 99.8022 176.572 99.7034 176.701C99.6045 176.83 99.4812 176.939 99.3404 177.02L59.5457 200.067C59.3559 200.173 59.1415 200.226 58.9244 200.221Z" fill="#37474F"/>
<path d="M56.8584 173.506C56.75 173.507 56.6433 173.479 56.5493 173.425C56.4554 173.371 56.3776 173.293 56.324 173.199C56.2823 173.129 56.2551 173.051 56.244 172.97C56.2329 172.888 56.238 172.806 56.2592 172.727C56.2803 172.648 56.3171 172.574 56.3672 172.509C56.4173 172.445 56.4798 172.391 56.5511 172.351L96.633 149.156C96.7038 149.113 96.7825 149.084 96.8645 149.072C96.9466 149.059 97.0304 149.063 97.1108 149.083C97.1913 149.104 97.2669 149.14 97.3331 149.19C97.3993 149.24 97.4549 149.303 97.4964 149.375C97.5379 149.447 97.5646 149.526 97.5749 149.609C97.5852 149.691 97.5789 149.775 97.5563 149.855C97.5337 149.935 97.4954 150.009 97.4435 150.074C97.3916 150.139 97.3273 150.192 97.2543 150.232L57.1724 173.426C57.0759 173.478 56.968 173.506 56.8584 173.506Z" fill="#37474F"/>
<path d="M57.9895 182.392C57.8536 182.391 57.7217 182.346 57.6139 182.263C57.5061 182.18 57.4285 182.064 57.3928 181.933C57.3572 181.802 57.3655 181.663 57.4166 181.537C57.4677 181.411 57.5587 181.305 57.6756 181.236L97.7575 158.042C97.8998 157.965 98.0666 157.946 98.2223 157.99C98.378 158.034 98.5104 158.137 98.5914 158.277C98.6723 158.417 98.6954 158.584 98.6557 158.741C98.616 158.897 98.5166 159.033 98.3788 159.117L58.2968 182.311C58.2031 182.364 58.0972 182.392 57.9895 182.392Z" fill="#37474F"/>
<path d="M57.9895 191.316C57.8536 191.316 57.7217 191.271 57.6139 191.188C57.5061 191.105 57.4285 190.989 57.3928 190.858C57.3572 190.727 57.3655 190.588 57.4166 190.462C57.4677 190.336 57.5587 190.23 57.6756 190.161L97.7575 166.967C97.8998 166.89 98.0666 166.871 98.2223 166.915C98.378 166.959 98.5104 167.062 98.5914 167.202C98.6723 167.342 98.6954 167.508 98.6557 167.665C98.616 167.822 98.5166 167.957 98.3788 168.042L58.2968 191.236C58.2031 191.289 58.0972 191.317 57.9895 191.316Z" fill="#37474F"/>
<path d="M94.3804 179.412C94.2212 179.412 94.068 179.351 93.9524 179.242C93.8369 179.132 93.7676 178.983 93.7591 178.824L91.755 143.465C91.7452 143.3 91.8014 143.138 91.911 143.015C92.0206 142.891 92.1748 142.816 92.3395 142.807C92.5043 142.797 92.6662 142.853 92.7896 142.963C92.913 143.072 92.9878 143.227 92.9975 143.391L95.0016 178.757C95.0071 178.839 94.9962 178.922 94.9695 179C94.9429 179.079 94.9011 179.151 94.8464 179.213C94.7918 179.275 94.7255 179.326 94.6512 179.362C94.577 179.398 94.4963 179.42 94.4138 179.425L94.3804 179.412Z" fill="#37474F"/>
<path d="M89.2528 182.398C89.0947 182.398 88.9425 182.338 88.827 182.23C88.7116 182.122 88.6417 181.974 88.6315 181.816L86.6274 146.451C86.6151 146.365 86.6208 146.278 86.644 146.195C86.6672 146.112 86.7074 146.035 86.7621 145.968C86.8168 145.902 86.8847 145.847 86.9616 145.808C87.0385 145.769 87.1227 145.747 87.2088 145.742C87.2949 145.737 87.381 145.751 87.4617 145.781C87.5424 145.812 87.6158 145.859 87.6774 145.919C87.7389 145.979 87.7873 146.052 87.8193 146.132C87.8513 146.212 87.8662 146.298 87.8633 146.384L89.8674 181.743C89.8747 181.825 89.8653 181.908 89.8397 181.987C89.8142 182.066 89.7731 182.138 89.7188 182.201C89.6646 182.263 89.5983 182.314 89.5239 182.35C89.4496 182.386 89.3687 182.407 89.2862 182.411L89.2528 182.398Z" fill="#37474F"/>
<path d="M84.1133 185.371C83.9548 185.371 83.8024 185.31 83.6879 185.2C83.5734 185.091 83.5056 184.941 83.4987 184.783L81.4946 149.424C81.4873 149.341 81.4967 149.258 81.5222 149.18C81.5477 149.101 81.5888 149.029 81.6431 148.966C81.6974 148.904 81.7636 148.853 81.838 148.817C81.9123 148.781 81.9932 148.76 82.0758 148.756C82.1579 148.749 82.2405 148.759 82.3188 148.785C82.397 148.811 82.4693 148.852 82.5315 148.906C82.5937 148.961 82.6444 149.026 82.6809 149.1C82.7173 149.174 82.7387 149.255 82.7438 149.337L84.7479 184.703C84.7543 184.785 84.7442 184.867 84.7183 184.946C84.6925 185.024 84.6513 185.096 84.5972 185.158C84.5431 185.22 84.4772 185.271 84.4033 185.308C84.3294 185.344 84.249 185.366 84.1667 185.371H84.1133Z" fill="#37474F"/>
<path d="M78.9832 188.377C78.8252 188.377 78.6729 188.318 78.5575 188.21C78.4421 188.102 78.3722 187.954 78.362 187.796L76.3579 152.43C76.3456 152.345 76.3513 152.258 76.3744 152.175C76.3976 152.092 76.4378 152.015 76.4925 151.948C76.5472 151.881 76.6152 151.827 76.6921 151.788C76.769 151.749 76.8532 151.726 76.9393 151.722C77.0254 151.717 77.1115 151.73 77.1922 151.761C77.2729 151.791 77.3463 151.838 77.4079 151.898C77.4694 151.959 77.5177 152.031 77.5497 152.111C77.5817 152.191 77.5967 152.277 77.5937 152.363L79.5978 187.722C79.6042 187.805 79.5939 187.888 79.5676 187.967C79.5413 188.046 79.4996 188.118 79.4448 188.18C79.39 188.243 79.3233 188.293 79.2486 188.329C79.1739 188.365 79.0928 188.386 79.01 188.39L78.9832 188.377Z" fill="#37474F"/>
<path d="M73.8528 191.383C73.6942 191.381 73.5419 191.32 73.4266 191.211C73.3114 191.102 73.2417 190.953 73.2316 190.795L71.2275 155.429C71.2231 155.347 71.2348 155.266 71.262 155.189C71.2891 155.112 71.3312 155.041 71.3858 154.98C71.4404 154.919 71.5064 154.87 71.5801 154.834C71.6538 154.799 71.7337 154.779 71.8153 154.774C71.8969 154.77 71.9786 154.782 72.0556 154.809C72.1327 154.836 72.2036 154.878 72.2644 154.933C72.3252 154.987 72.3747 155.053 72.4099 155.127C72.4452 155.201 72.4656 155.281 72.47 155.362L74.4741 190.728C74.4795 190.81 74.4686 190.893 74.442 190.971C74.4154 191.05 74.3735 191.122 74.3189 191.184C74.2643 191.246 74.198 191.297 74.1237 191.333C74.0495 191.369 73.9688 191.391 73.8862 191.396L73.8528 191.383Z" fill="#37474F"/>
<path d="M68.7241 194.356C68.565 194.356 68.4118 194.295 68.2962 194.186C68.1806 194.077 68.1114 193.927 68.1028 193.768L66.0987 158.409C66.089 158.244 66.1451 158.082 66.2547 157.959C66.3643 157.836 66.5185 157.761 66.6833 157.751C66.848 157.741 67.0099 157.797 67.1333 157.907C67.2567 158.017 67.3315 158.171 67.3413 158.336L69.3454 193.701C69.3517 193.783 69.3417 193.866 69.3158 193.944C69.2899 194.022 69.2488 194.095 69.1947 194.157C69.1406 194.219 69.0747 194.27 69.0008 194.306C68.9269 194.343 68.8464 194.364 68.7642 194.369L68.7241 194.356Z" fill="#37474F"/>
<path d="M63.5859 197.349C63.4284 197.346 63.2778 197.283 63.164 197.175C63.0501 197.066 62.9814 196.918 62.9713 196.761L60.9672 161.395C60.955 161.31 60.9606 161.223 60.9838 161.14C61.007 161.057 61.0472 160.979 61.1019 160.913C61.1566 160.846 61.2246 160.792 61.3015 160.753C61.3784 160.714 61.4626 160.691 61.5487 160.686C61.6348 160.682 61.7209 160.695 61.8016 160.726C61.8822 160.756 61.9557 160.803 62.0172 160.863C62.0788 160.924 62.1271 160.996 62.1591 161.076C62.1911 161.156 62.2061 161.242 62.2031 161.328L64.2072 196.694C64.2155 196.776 64.2068 196.86 64.1816 196.939C64.1565 197.018 64.1154 197.091 64.061 197.154C64.0065 197.216 63.9398 197.267 63.865 197.303C63.7902 197.339 63.7089 197.359 63.626 197.362L63.5859 197.349Z" fill="#37474F"/>
<path d="M117.792 102.535L90.75 86.9229V105.16L117.792 120.772L124.165 119.109V111.526L117.792 102.535ZM120.097 114.813C119.649 114.52 119.276 114.125 119.009 113.661C118.742 113.197 118.588 112.676 118.56 112.141C118.56 111.159 119.228 110.765 120.097 111.253C120.546 111.545 120.919 111.939 121.186 112.404C121.454 112.868 121.607 113.39 121.633 113.925C121.633 114.88 120.918 115.274 120.097 114.786V114.813Z" fill="#BA68C8"/>
<path opacity="0.5" d="M117.792 102.535L90.75 86.9229V105.16L117.792 120.772L124.165 119.109V111.526L117.792 102.535ZM120.097 114.813C119.649 114.52 119.276 114.125 119.009 113.661C118.742 113.197 118.588 112.676 118.56 112.141C118.56 111.159 119.228 110.765 120.097 111.253C120.546 111.545 120.919 111.939 121.186 112.404C121.454 112.868 121.607 113.39 121.633 113.925C121.633 114.88 120.918 115.274 120.097 114.786V114.813Z" fill="white"/>
<path d="M120.381 146.164C120.244 146.154 120.114 146.102 120.007 146.015C119.901 145.928 119.824 145.811 119.787 145.679C119.75 145.546 119.754 145.406 119.799 145.276C119.845 145.147 119.929 145.034 120.04 144.954L124.924 141.948C126.505 140.97 127.81 139.606 128.719 137.984C129.627 136.361 130.107 134.535 130.114 132.676V123.544C130.111 122.425 129.821 121.326 129.274 120.35C128.727 119.374 127.94 118.553 126.988 117.966L120.248 113.817C120.15 113.788 120.061 113.737 119.986 113.668C119.911 113.599 119.853 113.513 119.817 113.418C119.78 113.323 119.766 113.221 119.775 113.12C119.783 113.018 119.815 112.92 119.868 112.833C119.92 112.746 119.992 112.672 120.078 112.617C120.163 112.561 120.26 112.526 120.361 112.514C120.462 112.502 120.565 112.514 120.661 112.547C120.757 112.581 120.844 112.636 120.916 112.709L127.703 116.857C128.843 117.561 129.786 118.543 130.442 119.712C131.097 120.881 131.445 122.197 131.45 123.537V132.669C131.442 134.751 130.904 136.796 129.888 138.612C128.871 140.428 127.409 141.955 125.639 143.051L120.735 146.057C120.63 146.125 120.507 146.162 120.381 146.164Z" fill="#BA68C8"/>
<path opacity="0.9" d="M120.381 146.164C120.244 146.154 120.114 146.102 120.007 146.015C119.901 145.928 119.824 145.811 119.787 145.679C119.75 145.546 119.754 145.406 119.799 145.276C119.845 145.147 119.929 145.034 120.04 144.954L124.924 141.948C126.505 140.97 127.81 139.606 128.719 137.984C129.627 136.361 130.107 134.535 130.114 132.676V123.544C130.111 122.425 129.821 121.326 129.274 120.35C128.727 119.374 127.94 118.553 126.988 117.966L120.248 113.817C120.15 113.788 120.061 113.737 119.986 113.668C119.911 113.599 119.853 113.513 119.817 113.418C119.78 113.323 119.766 113.221 119.775 113.12C119.783 113.018 119.815 112.92 119.868 112.833C119.92 112.746 119.992 112.672 120.078 112.617C120.163 112.561 120.26 112.526 120.361 112.514C120.462 112.502 120.565 112.514 120.661 112.547C120.757 112.581 120.844 112.636 120.916 112.709L127.703 116.857C128.843 117.561 129.786 118.543 130.442 119.712C131.097 120.881 131.445 122.197 131.45 123.537V132.669C131.442 134.751 130.904 136.796 129.888 138.612C128.871 140.428 127.409 141.955 125.639 143.051L120.735 146.057C120.63 146.125 120.507 146.162 120.381 146.164Z" fill="black"/>
<path d="M111.563 227.356C111.563 230.222 109.559 231.365 107.074 229.948C105.765 229.097 104.675 227.948 103.894 226.595C103.113 225.243 102.662 223.725 102.578 222.166C102.578 219.3 104.582 218.158 107.074 219.574C108.381 220.427 109.469 221.576 110.249 222.929C111.029 224.281 111.479 225.798 111.563 227.356Z" fill="#455A64"/>
<path d="M108.598 225.647C108.598 226.622 107.929 227.023 107.068 226.535C106.62 226.242 106.247 225.847 105.98 225.383C105.713 224.919 105.559 224.398 105.531 223.863C105.531 222.881 106.199 222.487 107.068 222.975C107.515 223.268 107.887 223.663 108.153 224.127C108.419 224.592 108.571 225.112 108.598 225.647Z" fill="#263238"/>
<path d="M113.61 226.174C113.525 224.614 113.074 223.095 112.293 221.742C111.512 220.388 110.423 219.238 109.114 218.385C107.343 217.363 105.82 217.67 105.105 218.966C105.815 218.99 106.506 219.2 107.11 219.574C108.41 220.431 109.492 221.582 110.266 222.934C111.04 224.286 111.485 225.801 111.565 227.356C111.565 228.773 111.071 229.768 110.276 230.242L112.233 229.12C113.075 228.666 113.61 227.644 113.61 226.174Z" fill="#263238"/>
<path d="M107.264 217.53C104.137 215.719 101.605 217.182 101.605 220.79L112.902 227.323C112.902 223.716 110.383 219.333 107.264 217.53Z" fill="#BA68C8"/>
<path d="M109.294 215.94C106.996 214.604 105.025 215.058 104.137 216.808C105.231 216.672 106.339 216.928 107.263 217.53C110.383 219.333 112.921 223.716 112.921 227.323L114.925 225.74C114.952 222.112 112.42 217.743 109.294 215.94Z" fill="#BA68C8"/>
<path opacity="0.5" d="M109.294 215.94C106.996 214.604 105.025 215.058 104.137 216.808C105.231 216.672 106.339 216.928 107.263 217.53C110.383 219.333 112.921 223.716 112.921 227.323L114.925 225.74C114.952 222.112 112.42 217.743 109.294 215.94Z" fill="black"/>
<path d="M144.605 246.449C144.605 249.315 142.601 250.457 140.109 249.041C138.8 248.189 137.711 247.041 136.929 245.688C136.148 244.336 135.697 242.818 135.613 241.258C135.613 238.393 137.617 237.25 140.109 238.667C141.417 239.519 142.506 240.669 143.287 242.021C144.068 243.373 144.52 244.89 144.605 246.449Z" fill="#455A64"/>
<path d="M141.624 244.739C141.624 245.714 140.956 246.115 140.087 245.627C139.639 245.334 139.267 244.939 139 244.475C138.733 244.01 138.579 243.49 138.551 242.955C138.551 241.973 139.219 241.579 140.087 242.066C140.536 242.358 140.91 242.753 141.177 243.218C141.444 243.682 141.597 244.203 141.624 244.739Z" fill="#263238"/>
<path d="M146.65 245.267C146.565 243.707 146.115 242.19 145.335 240.836C144.555 239.483 143.467 238.333 142.161 237.478C140.39 236.455 138.86 236.763 138.152 238.059C138.862 238.083 139.553 238.293 140.156 238.667C141.464 239.52 142.553 240.669 143.334 242.021C144.115 243.373 144.567 244.89 144.652 246.449C144.652 247.865 144.158 248.861 143.363 249.335L145.314 248.213C146.115 247.759 146.65 246.736 146.65 245.267Z" fill="#263238"/>
<path d="M140.291 236.622C137.165 234.812 134.633 236.275 134.633 239.882L145.949 246.416C145.963 242.822 143.431 238.426 140.291 236.622Z" fill="#BA68C8"/>
<path d="M142.334 235.033C140.043 233.696 138.065 234.151 137.184 235.901C138.276 235.762 139.383 236.018 140.303 236.622C143.43 238.426 145.962 242.808 145.962 246.416L147.966 244.833C147.992 241.219 145.461 236.809 142.334 235.033Z" fill="#BA68C8"/>
<path opacity="0.5" d="M142.334 235.033C140.043 233.696 138.065 234.151 137.184 235.901C138.276 235.762 139.383 236.018 140.303 236.622C143.43 238.426 145.962 242.808 145.962 246.416L147.966 244.833C147.992 241.219 145.461 236.809 142.334 235.033Z" fill="black"/>
<path d="M104.923 269.449C104.923 272.315 102.918 273.457 100.433 272.041C99.1242 271.189 98.0347 270.041 97.2535 268.688C96.4723 267.336 96.0214 265.818 95.9375 264.258C95.9375 261.393 97.9416 260.25 100.433 261.667C101.74 262.52 102.828 263.669 103.608 265.021C104.388 266.373 104.838 267.89 104.923 269.449Z" fill="#455A64"/>
<path d="M101.965 267.739C101.965 268.721 101.297 269.115 100.435 268.627C99.9868 268.334 99.6142 267.939 99.3472 267.475C99.0803 267.01 98.9265 266.49 98.8984 265.955C98.8984 264.973 99.5665 264.579 100.435 265.066C100.881 265.361 101.252 265.757 101.518 266.221C101.783 266.685 101.936 267.205 101.965 267.739Z" fill="#263238"/>
<path d="M106.977 268.266C106.893 266.707 106.442 265.189 105.661 263.837C104.879 262.484 103.79 261.336 102.481 260.484C100.711 259.462 99.1875 259.762 98.4727 261.058C99.1823 261.083 99.8732 261.292 100.477 261.666C101.784 262.52 102.872 263.669 103.651 265.021C104.431 266.373 104.882 267.89 104.966 269.449C104.966 270.865 104.472 271.86 103.677 272.341L105.634 271.212C106.442 270.758 106.977 269.736 106.977 268.266Z" fill="#263238"/>
<path d="M100.627 259.622C97.5006 257.818 94.9688 259.281 94.9688 262.889L106.285 269.422C106.285 265.808 103.753 261.426 100.627 259.622Z" fill="#BA68C8"/>
<path d="M102.657 258.032C100.359 256.696 98.3885 257.15 97.5 258.907C98.5942 258.762 99.7039 259.016 100.626 259.622C103.753 261.426 106.285 265.808 106.285 269.422L108.289 267.832C108.315 264.198 105.784 259.836 102.657 258.032Z" fill="#BA68C8"/>
<path opacity="0.5" d="M102.657 258.032C100.359 256.696 98.3885 257.15 97.5 258.907C98.5942 258.762 99.7039 259.016 100.626 259.622C103.753 261.426 106.285 265.808 106.285 269.422L108.289 267.832C108.315 264.198 105.784 259.836 102.657 258.032Z" fill="black"/>
<path d="M146.402 245.54C146.128 245.539 145.861 245.448 145.644 245.28C145.427 245.112 145.272 244.877 145.203 244.612C145.133 244.346 145.154 244.065 145.261 243.813C145.368 243.56 145.555 243.35 145.794 243.215C146.083 243.053 146.324 242.816 146.491 242.529C146.659 242.243 146.747 241.917 146.747 241.585C146.747 241.253 146.659 240.928 146.491 240.641C146.324 240.355 146.083 240.118 145.794 239.955L103.949 216.474C102.625 215.736 101.51 214.675 100.706 213.391C99.9024 212.106 99.4368 210.639 99.3525 209.126L94.8233 127.786C94.7591 126.674 94.4204 125.596 93.8375 124.647C93.2546 123.698 92.4457 122.908 91.4831 122.348L88.5571 120.638C88.1653 120.415 87.7221 120.298 87.2712 120.298C86.8202 120.298 86.3771 120.415 85.9852 120.638L83.5268 122.007C83.2421 122.142 82.917 122.163 82.6172 122.067C82.3174 121.971 82.0652 121.765 81.9117 121.49C81.7581 121.215 81.7147 120.892 81.79 120.586C81.8654 120.281 82.054 120.015 82.3177 119.843L84.7694 118.507C85.5398 118.074 86.4103 117.85 87.2941 117.859C88.1779 117.867 89.0441 118.106 89.8063 118.554L92.7323 120.264C94.0475 121.029 95.1518 122.109 95.9459 123.407C96.74 124.705 97.199 126.18 97.2816 127.699L101.811 209.019C101.871 210.119 102.208 211.187 102.792 212.121C103.376 213.056 104.188 213.827 105.151 214.363L146.997 237.844C147.671 238.222 148.233 238.773 148.624 239.44C149.015 240.107 149.221 240.866 149.221 241.639C149.221 242.412 149.015 243.171 148.624 243.838C148.233 244.505 147.671 245.055 146.997 245.433C146.81 245.517 146.606 245.553 146.402 245.54Z" fill="#263238"/>
<path d="M111.405 221.097C111.086 221.096 110.774 221.013 110.496 220.857L102.967 216.635C102.537 216.394 102.22 215.992 102.086 215.517C101.952 215.042 102.012 214.534 102.253 214.103C102.494 213.673 102.896 213.355 103.37 213.221C103.845 213.087 104.354 213.147 104.784 213.388L112.313 217.61C112.671 217.812 112.953 218.127 113.113 218.506C113.274 218.884 113.305 219.306 113.201 219.704C113.097 220.101 112.865 220.454 112.54 220.706C112.215 220.958 111.816 221.096 111.405 221.097Z" fill="#BA68C8"/>
<path d="M114.676 222.313C114.463 222.312 114.254 222.256 114.068 222.152L111.443 220.676C111.179 220.504 110.99 220.238 110.915 219.933C110.84 219.627 110.883 219.304 111.037 219.029C111.19 218.754 111.442 218.548 111.742 218.452C112.042 218.356 112.367 218.377 112.652 218.511L115.284 219.988C115.523 220.123 115.71 220.333 115.818 220.585C115.925 220.838 115.945 221.119 115.876 221.384C115.806 221.65 115.651 221.885 115.434 222.053C115.217 222.221 114.95 222.312 114.676 222.313Z" fill="#253239"/>
<path d="M145.131 240.022C144.812 240.024 144.499 239.941 144.223 239.782L136.694 235.56C136.481 235.44 136.293 235.28 136.142 235.089C135.991 234.897 135.879 234.677 135.812 234.442C135.746 234.207 135.726 233.961 135.755 233.718C135.784 233.476 135.86 233.241 135.979 233.028C136.22 232.597 136.622 232.28 137.097 232.146C137.332 232.08 137.578 232.06 137.821 232.089C138.063 232.118 138.298 232.194 138.511 232.313L146.046 236.542C146.407 236.742 146.691 237.057 146.853 237.436C147.014 237.816 147.045 238.238 146.94 238.637C146.836 239.036 146.601 239.389 146.273 239.64C145.946 239.891 145.544 240.025 145.131 240.022Z" fill="#BA68C8"/>
<path d="M146.4 245.54C146.126 245.54 145.859 245.448 145.642 245.28C145.425 245.112 145.27 244.877 145.201 244.612C145.131 244.347 145.152 244.066 145.259 243.813C145.366 243.56 145.553 243.35 145.792 243.215C146.081 243.053 146.322 242.816 146.489 242.529C146.657 242.243 146.745 241.917 146.745 241.585C146.745 241.254 146.657 240.928 146.489 240.641C146.322 240.355 146.081 240.118 145.792 239.955C145.521 239.786 145.325 239.519 145.246 239.209C145.166 238.9 145.209 238.571 145.366 238.292C145.522 238.013 145.781 237.806 146.086 237.712C146.392 237.619 146.722 237.647 147.008 237.791C147.682 238.169 148.244 238.719 148.635 239.386C149.026 240.053 149.232 240.812 149.232 241.585C149.232 242.358 149.026 243.118 148.635 243.784C148.244 244.451 147.682 245.002 147.008 245.38C146.822 245.484 146.613 245.539 146.4 245.54Z" fill="#455A64"/>
<path d="M70.5604 253.264C72.3145 252.251 72.3144 248.967 70.56 245.928C68.8057 242.89 65.9615 241.247 64.2074 242.26C62.4533 243.273 62.4534 246.557 64.2077 249.596C65.9621 252.634 68.8062 254.276 70.5604 253.264Z" fill="#455A64"/>
<path d="M68.9217 248.647C68.9217 249.629 68.2537 250.023 67.3853 249.535C66.938 249.242 66.5664 248.847 66.3006 248.382C66.0348 247.918 65.8823 247.397 65.8555 246.863C65.8555 245.881 66.5235 245.487 67.3853 245.975C67.8334 246.268 68.206 246.663 68.473 247.127C68.7399 247.591 68.8937 248.112 68.9217 248.647Z" fill="#263238"/>
<path d="M73.9337 249.175C73.8483 247.615 73.3967 246.098 72.6156 244.746C71.8345 243.394 70.7459 242.245 69.4379 241.392C67.6676 240.37 66.1378 240.671 65.4297 241.967C66.1395 241.99 66.8306 242.2 67.4338 242.574C68.7429 243.426 69.8324 244.575 70.6136 245.927C71.3949 247.28 71.8458 248.797 71.9296 250.357C71.9296 251.773 71.4353 252.769 70.6403 253.25L72.591 252.121C73.3993 251.666 73.9337 250.644 73.9337 249.175Z" fill="#263238"/>
<path d="M67.5812 240.53C64.4615 238.727 61.9297 240.19 61.9297 243.797L73.2395 250.33C73.2395 246.716 70.7076 242.334 67.5812 240.53Z" fill="#BA68C8"/>
<path d="M69.6115 238.94C67.3201 237.604 65.3494 238.059 64.4609 239.815C65.553 239.67 66.6609 239.924 67.5806 240.53C70.707 242.334 73.2389 246.716 73.2389 250.33L75.243 248.74C75.2697 245.133 72.7379 240.744 69.6115 238.94Z" fill="#BA68C8"/>
<path opacity="0.5" d="M69.6115 238.94C67.3201 237.604 65.3494 238.059 64.4609 239.815C65.553 239.67 66.6609 239.924 67.5806 240.53C70.707 242.334 73.2389 246.716 73.2389 250.33L75.243 248.74C75.2697 245.133 72.7379 240.744 69.6115 238.94Z" fill="black"/>
<path d="M110.897 263.777C108.746 263.781 106.63 263.234 104.751 262.187L63.6006 239.093C62.277 238.355 61.1616 237.295 60.358 236.01C59.5544 234.725 59.0888 233.258 59.0046 231.745L54.4753 150.425C54.4118 149.314 54.0733 148.236 53.4903 147.289C52.9073 146.341 52.0981 145.552 51.1352 144.994L48.1023 143.184C47.735 142.97 47.4308 142.662 47.2208 142.292C47.0108 141.922 46.9023 141.503 46.9064 141.078C46.9104 140.653 47.0269 140.236 47.244 139.87C47.4611 139.505 47.771 139.203 48.1424 138.995L82.3456 119.823C82.4883 119.73 82.6486 119.667 82.8165 119.639C82.9844 119.61 83.1564 119.616 83.3218 119.657C83.4872 119.698 83.6424 119.772 83.7779 119.876C83.9133 119.979 84.0261 120.109 84.1091 120.258C84.1922 120.406 84.2438 120.571 84.2607 120.74C84.2777 120.91 84.2596 121.081 84.2076 121.243C84.1556 121.405 84.0709 121.555 83.9585 121.683C83.8462 121.811 83.7088 121.915 83.5548 121.987L49.4851 141.106L52.4311 142.83C53.7456 143.598 54.8492 144.679 55.6431 145.978C56.4371 147.277 56.8965 148.752 56.9804 150.272L61.4629 231.585C61.522 232.685 61.8594 233.753 62.4436 234.688C63.0278 235.622 63.8396 236.394 64.8031 236.929L105.961 260.023C107.468 260.86 109.163 261.3 110.887 261.3C112.611 261.3 114.307 260.86 115.814 260.023L145.795 243.215C145.938 243.126 146.097 243.067 146.263 243.042C146.429 243.016 146.598 243.024 146.761 243.066C146.924 243.108 147.076 243.182 147.209 243.284C147.342 243.387 147.453 243.515 147.536 243.661C147.618 243.808 147.67 243.969 147.688 244.136C147.706 244.303 147.69 244.472 147.641 244.633C147.592 244.793 147.511 244.942 147.402 245.07C147.294 245.199 147.161 245.304 147.011 245.38L117.023 262.194C115.15 263.237 113.041 263.782 110.897 263.777Z" fill="#455A64"/>
<path d="M71.7285 244.098C71.4076 244.099 71.0919 244.016 70.8133 243.857L63.2846 239.635C62.8774 239.382 62.5837 238.981 62.4646 238.516C62.3455 238.051 62.4101 237.559 62.6451 237.14C62.88 236.722 63.2671 236.411 63.7259 236.271C64.1847 236.131 64.6799 236.173 65.1083 236.389L72.637 240.617C72.9971 240.817 73.2805 241.132 73.4425 241.51C73.6045 241.889 73.6359 242.311 73.5319 242.71C73.4278 243.108 73.1942 243.461 72.8677 243.712C72.5412 243.964 72.1405 244.099 71.7285 244.098Z" fill="#BA68C8"/>
<path d="M105.46 263.022C105.142 263.023 104.829 262.943 104.551 262.789L97.0158 258.56C96.8026 258.438 96.6155 258.275 96.4653 258.081C96.315 257.887 96.2044 257.665 96.1399 257.428C96.0754 257.191 96.0582 256.943 96.0893 256.7C96.1203 256.456 96.1991 256.221 96.321 256.008C96.443 255.795 96.6057 255.608 96.7999 255.457C96.9942 255.307 97.2161 255.197 97.4531 255.132C97.69 255.068 97.9374 255.05 98.181 255.081C98.4246 255.113 98.6597 255.191 98.8729 255.313L106.368 259.522C106.728 259.722 107.012 260.036 107.174 260.415C107.336 260.794 107.367 261.216 107.263 261.614C107.159 262.013 106.925 262.366 106.599 262.617C106.272 262.868 105.872 263.004 105.46 263.002V263.022Z" fill="#BA68C8"/>
<path d="M110.896 263.79C109.294 263.791 107.706 263.485 106.219 262.889C106.061 262.834 105.914 262.747 105.79 262.634C105.665 262.521 105.565 262.384 105.495 262.231C105.425 262.078 105.387 261.912 105.383 261.744C105.379 261.576 105.409 261.409 105.472 261.253C105.534 261.097 105.628 260.955 105.747 260.836C105.865 260.717 106.007 260.623 106.163 260.561C106.319 260.498 106.487 260.468 106.655 260.472C106.823 260.476 106.988 260.514 107.141 260.584C108.332 261.065 109.605 261.312 110.889 261.312C111.059 261.3 111.231 261.322 111.392 261.379C111.553 261.435 111.701 261.525 111.826 261.641C111.951 261.757 112.051 261.898 112.119 262.055C112.187 262.211 112.223 262.38 112.223 262.551C112.223 262.722 112.187 262.891 112.119 263.048C112.051 263.204 111.951 263.345 111.826 263.461C111.701 263.578 111.553 263.667 111.392 263.724C111.231 263.78 111.059 263.803 110.889 263.79H110.896Z" fill="#455A64"/>
<path d="M68.2366 240.249C67.9109 240.25 67.5907 240.165 67.3081 240.003C67.0256 239.841 66.7906 239.607 66.6269 239.326C66.4631 239.044 66.3762 238.725 66.375 238.399C66.3738 238.073 66.4583 237.753 66.62 237.47L67.9961 235.038C68.111 234.815 68.2698 234.617 68.4631 234.457C68.6563 234.297 68.88 234.177 69.1206 234.105C69.3613 234.033 69.614 234.011 69.8635 234.039C70.1131 234.068 70.3543 234.146 70.5728 234.27C70.7912 234.394 70.9824 234.56 71.1348 234.76C71.2872 234.96 71.3977 235.188 71.4596 235.431C71.5216 235.675 71.5337 235.928 71.4953 236.176C71.4569 236.424 71.3687 236.662 71.2361 236.876L69.8532 239.307C69.6912 239.593 69.4562 239.831 69.1722 239.997C68.8882 240.162 68.5653 240.249 68.2366 240.249Z" fill="#BA68C8"/>
<path d="M70.0663 236.402C69.8524 236.401 69.6424 236.344 69.4584 236.235C69.3163 236.155 69.1914 236.048 69.0909 235.919C68.9904 235.791 68.9163 235.644 68.8729 235.487C68.8294 235.33 68.8174 235.166 68.8377 235.004C68.8579 234.842 68.9099 234.686 68.9908 234.544L75.1367 223.709C75.5917 222.907 76.2513 222.241 77.0482 221.777C77.8451 221.313 78.7507 221.07 79.6726 221.07H82.7255C83.9439 221.069 85.1119 220.584 85.9735 219.722C86.835 218.861 87.3198 217.693 87.3216 216.474C87.3091 216.304 87.3318 216.133 87.3884 215.971C87.445 215.81 87.5343 215.663 87.6505 215.537C87.7668 215.412 87.9077 215.312 88.0643 215.244C88.2209 215.176 88.3899 215.141 88.5608 215.141C88.7316 215.141 88.9006 215.176 89.0572 215.244C89.2139 215.312 89.3547 215.412 89.471 215.537C89.5873 215.663 89.6765 215.81 89.7331 215.971C89.7897 216.133 89.8125 216.304 89.8 216.474C89.7982 218.35 89.0523 220.148 87.726 221.475C86.3996 222.801 84.6012 223.547 82.7255 223.549H79.6726C79.1893 223.548 78.7146 223.676 78.2968 223.919C77.879 224.162 77.5331 224.511 77.2944 224.931L71.1485 235.767C71.0412 235.96 70.8842 236.12 70.6939 236.232C70.5036 236.343 70.2869 236.402 70.0663 236.402Z" fill="#455A64"/>
<path d="M56.1705 159.892C55.8987 159.891 55.6348 159.801 55.4192 159.635C55.2036 159.469 55.0483 159.238 54.9771 158.975C54.9058 158.713 54.9225 158.435 55.0247 158.183C55.1268 157.931 55.3087 157.719 55.5425 157.581L95.6245 134.387C95.7653 134.305 95.9208 134.252 96.0821 134.231C96.2434 134.209 96.4074 134.22 96.5646 134.261C96.7219 134.303 96.8693 134.376 96.9986 134.475C97.1278 134.573 97.2364 134.697 97.318 134.838C97.3995 134.978 97.4526 135.134 97.4741 135.295C97.4956 135.457 97.4851 135.621 97.4432 135.778C97.4013 135.935 97.3289 136.082 97.23 136.212C97.1312 136.341 97.0078 136.45 96.867 136.531L56.7851 159.725C56.5987 159.834 56.3866 159.892 56.1705 159.892Z" fill="#455A64"/>
<path d="M75.0032 245.313C74.7903 245.312 74.5811 245.257 74.3953 245.153L71.7633 243.677C71.6216 243.597 71.497 243.49 71.3967 243.362C71.2963 243.234 71.2222 243.087 71.1784 242.931C71.1347 242.774 71.1222 242.61 71.1418 242.449C71.1613 242.288 71.2125 242.131 71.2923 241.99C71.3721 241.848 71.4791 241.724 71.6071 241.623C71.735 241.523 71.8815 241.449 72.0382 241.405C72.1948 241.361 72.3585 241.349 72.5199 241.368C72.6814 241.388 72.8374 241.439 72.9791 241.519L75.6111 242.989C75.8501 243.123 76.0377 243.333 76.1447 243.586C76.2518 243.839 76.2722 244.12 76.2027 244.385C76.1333 244.651 75.978 244.886 75.761 245.053C75.544 245.221 75.2776 245.313 75.0032 245.313Z" fill="#455A64"/>
<path d="M103.546 179.358C103.382 179.358 103.224 179.293 103.107 179.176C102.991 179.06 102.925 178.902 102.925 178.737V145.062C102.916 144.975 102.925 144.888 102.952 144.805C102.979 144.722 103.023 144.646 103.082 144.581C103.14 144.517 103.211 144.465 103.291 144.43C103.37 144.394 103.456 144.376 103.543 144.376C103.63 144.376 103.716 144.394 103.796 144.43C103.875 144.465 103.946 144.517 104.005 144.581C104.063 144.646 104.107 144.722 104.134 144.805C104.161 144.888 104.17 144.975 104.161 145.062V178.75C104.158 178.912 104.092 179.065 103.977 179.179C103.862 179.292 103.708 179.357 103.546 179.358Z" fill="#263238"/>
<path d="M108.605 182.264C108.44 182.264 108.282 182.199 108.166 182.082C108.049 181.966 107.984 181.808 107.984 181.643V147.961C107.975 147.874 107.984 147.787 108.011 147.704C108.038 147.622 108.082 147.545 108.14 147.481C108.199 147.416 108.27 147.364 108.349 147.329C108.429 147.294 108.515 147.275 108.602 147.275C108.689 147.275 108.775 147.294 108.854 147.329C108.934 147.364 109.005 147.416 109.063 147.481C109.121 147.545 109.166 147.622 109.192 147.704C109.219 147.787 109.229 147.874 109.22 147.961V181.65C109.218 181.812 109.153 181.968 109.038 182.083C108.923 182.197 108.768 182.263 108.605 182.264Z" fill="#263238"/>
<path d="M113.668 185.15C113.586 185.151 113.505 185.136 113.429 185.105C113.354 185.074 113.285 185.028 113.227 184.97C113.169 184.912 113.123 184.843 113.092 184.768C113.061 184.692 113.046 184.611 113.047 184.529V150.84C113.047 150.675 113.112 150.517 113.229 150.401C113.345 150.284 113.503 150.219 113.668 150.219C113.833 150.219 113.991 150.284 114.107 150.401C114.224 150.517 114.289 150.675 114.289 150.84V184.529C114.289 184.694 114.224 184.852 114.107 184.968C113.991 185.085 113.833 185.15 113.668 185.15Z" fill="#263238"/>
<path d="M118.731 188.043C118.649 188.043 118.568 188.027 118.493 187.995C118.418 187.964 118.349 187.918 118.291 187.861C118.234 187.803 118.188 187.735 118.157 187.659C118.125 187.584 118.109 187.503 118.109 187.421V153.733C118.109 153.568 118.175 153.41 118.291 153.293C118.408 153.177 118.566 153.111 118.731 153.111C118.895 153.111 119.053 153.177 119.17 153.293C119.286 153.41 119.352 153.568 119.352 153.733V187.421C119.352 187.586 119.286 187.744 119.17 187.861C119.053 187.977 118.895 188.043 118.731 188.043Z" fill="#263238"/>
<path d="M123.797 190.928C123.632 190.928 123.474 190.863 123.358 190.746C123.241 190.63 123.176 190.472 123.176 190.307V156.645C123.176 156.48 123.241 156.322 123.358 156.205C123.474 156.089 123.632 156.023 123.797 156.023C123.962 156.023 124.12 156.089 124.236 156.205C124.353 156.322 124.418 156.48 124.418 156.645V190.334C124.411 190.494 124.343 190.645 124.227 190.756C124.111 190.866 123.957 190.928 123.797 190.928Z" fill="#263238"/>
<path d="M128.86 193.821C128.695 193.821 128.537 193.756 128.42 193.639C128.304 193.523 128.238 193.365 128.238 193.2V159.511C128.238 159.346 128.304 159.188 128.42 159.072C128.537 158.955 128.695 158.89 128.86 158.89C129.024 158.89 129.182 158.955 129.299 159.072C129.415 159.188 129.481 159.346 129.481 159.511V193.2C129.481 193.365 129.415 193.523 129.299 193.639C129.182 193.756 129.024 193.821 128.86 193.821Z" fill="#263238"/>
<path d="M133.922 196.727C133.757 196.727 133.599 196.661 133.483 196.545C133.366 196.428 133.301 196.27 133.301 196.106V162.397C133.301 162.232 133.366 162.074 133.483 161.957C133.599 161.841 133.757 161.775 133.922 161.775C134.087 161.775 134.245 161.841 134.361 161.957C134.478 162.074 134.543 162.232 134.543 162.397V196.059C134.55 196.144 134.538 196.23 134.51 196.311C134.482 196.392 134.437 196.466 134.379 196.529C134.32 196.591 134.25 196.641 134.171 196.676C134.093 196.71 134.008 196.727 133.922 196.727Z" fill="#263238"/>
<path d="M138.988 199.599C138.824 199.599 138.666 199.534 138.549 199.417C138.433 199.301 138.367 199.143 138.367 198.978V165.289C138.367 165.124 138.433 164.966 138.549 164.85C138.666 164.733 138.824 164.668 138.988 164.668C139.153 164.668 139.311 164.733 139.428 164.85C139.544 164.966 139.61 165.124 139.61 165.289V198.978C139.61 199.143 139.544 199.301 139.428 199.417C139.311 199.534 139.153 199.599 138.988 199.599Z" fill="#263238"/>
<path d="M144.051 202.485C143.886 202.485 143.728 202.42 143.612 202.303C143.495 202.187 143.43 202.029 143.43 201.864V168.175C143.43 168.01 143.495 167.852 143.612 167.736C143.728 167.619 143.886 167.554 144.051 167.554C144.216 167.554 144.374 167.619 144.49 167.736C144.607 167.852 144.672 168.01 144.672 168.175V201.864C144.672 202.029 144.607 202.187 144.49 202.303C144.374 202.42 144.216 202.485 144.051 202.485Z" fill="#263238"/>
<path d="M149.113 205.411C149.032 205.411 148.951 205.395 148.876 205.364C148.8 205.333 148.732 205.287 148.674 205.229C148.616 205.171 148.571 205.103 148.539 205.028C148.508 204.952 148.492 204.871 148.492 204.79V171.068C148.492 170.903 148.558 170.745 148.674 170.628C148.791 170.512 148.949 170.446 149.113 170.446C149.278 170.446 149.436 170.512 149.553 170.628C149.669 170.745 149.735 170.903 149.735 171.068V204.743C149.741 204.829 149.73 204.914 149.702 204.995C149.673 205.076 149.629 205.15 149.57 205.213C149.512 205.276 149.441 205.326 149.363 205.36C149.284 205.394 149.199 205.411 149.113 205.411Z" fill="#263238"/>
<path d="M154.18 208.264C154.015 208.264 153.857 208.199 153.741 208.082C153.624 207.966 153.559 207.808 153.559 207.643V173.954C153.559 173.79 153.624 173.631 153.741 173.515C153.857 173.398 154.015 173.333 154.18 173.333C154.345 173.333 154.503 173.398 154.619 173.515C154.736 173.631 154.801 173.79 154.801 173.954V207.643C154.802 207.725 154.787 207.806 154.756 207.882C154.725 207.958 154.679 208.027 154.621 208.084C154.563 208.142 154.494 208.188 154.419 208.219C154.343 208.25 154.262 208.265 154.18 208.264Z" fill="#263238"/>
<path d="M159.243 211.157C159.079 211.155 158.923 211.089 158.808 210.973C158.693 210.856 158.628 210.699 158.628 210.536V176.847C158.619 176.76 158.629 176.673 158.656 176.59C158.682 176.507 158.727 176.431 158.785 176.366C158.843 176.302 158.914 176.25 158.994 176.215C159.073 176.179 159.159 176.161 159.246 176.161C159.333 176.161 159.419 176.179 159.499 176.215C159.578 176.25 159.65 176.302 159.708 176.366C159.766 176.431 159.81 176.507 159.837 176.59C159.864 176.673 159.873 176.76 159.864 176.847V210.536C159.864 210.7 159.799 210.858 159.682 210.975C159.566 211.091 159.408 211.157 159.243 211.157Z" fill="#263238"/>
<path d="M164.337 211.157C164.173 211.155 164.017 211.089 163.902 210.972C163.787 210.856 163.722 210.699 163.722 210.535V179.732C163.713 179.646 163.722 179.558 163.749 179.476C163.776 179.393 163.82 179.317 163.879 179.252C163.937 179.188 164.008 179.136 164.087 179.101C164.167 179.065 164.253 179.047 164.34 179.047C164.427 179.047 164.513 179.065 164.593 179.101C164.672 179.136 164.743 179.188 164.802 179.252C164.86 179.317 164.904 179.393 164.931 179.476C164.958 179.558 164.967 179.646 164.958 179.732V210.535C164.958 210.7 164.893 210.858 164.776 210.975C164.659 211.091 164.501 211.157 164.337 211.157Z" fill="#263238"/>
<path d="M169.375 206.815C169.293 206.815 169.213 206.8 169.137 206.77C169.062 206.739 168.993 206.694 168.936 206.637C168.878 206.58 168.832 206.512 168.801 206.437C168.769 206.362 168.753 206.281 168.753 206.2V182.625C168.744 182.539 168.754 182.451 168.781 182.368C168.808 182.286 168.852 182.209 168.91 182.145C168.968 182.08 169.039 182.028 169.119 181.993C169.198 181.958 169.284 181.939 169.371 181.939C169.458 181.939 169.544 181.958 169.624 181.993C169.703 182.028 169.775 182.08 169.833 182.145C169.891 182.209 169.935 182.286 169.962 182.368C169.989 182.451 169.998 182.539 169.989 182.625V206.2C169.989 206.281 169.973 206.361 169.942 206.435C169.912 206.51 169.866 206.577 169.809 206.635C169.752 206.692 169.684 206.737 169.61 206.768C169.535 206.799 169.455 206.815 169.375 206.815Z" fill="#263238"/>
<path d="M174.438 201.778C174.273 201.778 174.115 201.712 173.998 201.596C173.882 201.479 173.816 201.321 173.816 201.156V185.511C173.816 185.346 173.882 185.188 173.998 185.072C174.115 184.955 174.273 184.89 174.438 184.89C174.602 184.89 174.76 184.955 174.877 185.072C174.993 185.188 175.059 185.346 175.059 185.511V201.156C175.059 201.321 174.993 201.479 174.877 201.596C174.76 201.712 174.602 201.778 174.438 201.778Z" fill="#263238"/>
<path d="M179.504 197.215C179.339 197.215 179.181 197.149 179.065 197.033C178.948 196.916 178.883 196.758 178.883 196.594V188.404C178.883 188.239 178.948 188.081 179.065 187.964C179.181 187.848 179.339 187.782 179.504 187.782C179.669 187.782 179.827 187.848 179.943 187.964C180.06 188.081 180.125 188.239 180.125 188.404V196.594C180.125 196.758 180.06 196.916 179.943 197.033C179.827 197.149 179.669 197.215 179.504 197.215Z" fill="#263238"/>
<path d="M179.529 197.789C179.42 197.791 179.313 197.761 179.222 197.703L96.8131 150.493C96.7357 150.456 96.6666 150.404 96.6102 150.339C96.5539 150.275 96.5115 150.199 96.4858 150.118C96.46 150.036 96.4514 149.95 96.4606 149.865C96.4697 149.779 96.4964 149.697 96.5389 149.623C96.5814 149.548 96.6388 149.483 96.7076 149.432C96.7763 149.381 96.8549 149.345 96.9384 149.326C97.0219 149.306 97.1084 149.304 97.1926 149.32C97.2768 149.336 97.3569 149.369 97.4277 149.417L179.836 196.627C179.979 196.709 180.083 196.845 180.125 197.004C180.168 197.163 180.146 197.333 180.063 197.475C180.01 197.57 179.933 197.65 179.839 197.705C179.745 197.76 179.638 197.789 179.529 197.789Z" fill="#263238"/>
<path d="M173.693 202.873C173.586 202.871 173.48 202.844 173.386 202.793L97.7713 159.471C97.6334 159.391 97.5319 159.261 97.4883 159.107C97.4447 158.954 97.4623 158.79 97.5375 158.649C97.5778 158.578 97.6317 158.516 97.6961 158.465C97.7606 158.415 97.8344 158.378 97.9132 158.356C97.992 158.335 98.0743 158.329 98.1554 158.339C98.2366 158.349 98.3149 158.375 98.3859 158.416L173.994 201.737C174.116 201.803 174.212 201.908 174.267 202.034C174.322 202.161 174.332 202.303 174.297 202.437C174.261 202.57 174.182 202.688 174.071 202.771C173.96 202.854 173.825 202.897 173.687 202.893L173.693 202.873Z" fill="#263238"/>
<path d="M168.28 208.21C168.171 208.21 168.065 208.18 167.973 208.123L98.2568 168.182C98.1856 168.141 98.1231 168.088 98.0728 168.023C98.0225 167.959 97.9855 167.885 97.9637 167.806C97.942 167.727 97.9361 167.645 97.9462 167.564C97.9564 167.483 97.9824 167.404 98.0229 167.333C98.1066 167.192 98.2422 167.089 98.4008 167.047C98.5594 167.004 98.7283 167.026 98.8713 167.106L168.594 207.048C168.735 207.132 168.838 207.267 168.88 207.426C168.923 207.584 168.902 207.753 168.821 207.896C168.767 207.992 168.689 208.072 168.593 208.127C168.498 208.182 168.39 208.211 168.28 208.21Z" fill="#263238"/>
<path d="M162.797 213.802C162.578 213.802 162.364 213.745 162.176 213.635L98.9396 177.407C98.6534 177.243 98.4441 176.973 98.3577 176.654C98.2712 176.336 98.3147 175.997 98.4786 175.71C98.6425 175.424 98.9133 175.215 99.2316 175.129C99.5498 175.042 99.8893 175.086 100.175 175.25L162.623 211.029L183.252 192.051L97.4365 142.883C97.1714 142.71 96.9827 142.441 96.909 142.133C96.8354 141.825 96.8823 141.5 97.0402 141.225C97.198 140.95 97.455 140.746 97.7584 140.655C98.0618 140.563 98.3888 140.591 98.6724 140.732L185.957 190.714C186.126 190.813 186.269 190.95 186.375 191.113C186.482 191.277 186.549 191.463 186.572 191.656C186.593 191.85 186.568 192.046 186.5 192.228C186.431 192.41 186.321 192.573 186.178 192.705L163.632 213.481C163.403 213.688 163.105 213.802 162.797 213.802Z" fill="#263238"/>
<path d="M63.4639 201.497C63.3555 201.498 63.2488 201.47 63.1548 201.416C63.0608 201.362 62.983 201.284 62.9294 201.19C62.8878 201.119 62.8606 201.041 62.8495 200.96C62.8383 200.879 62.8435 200.797 62.8647 200.718C62.8858 200.639 62.9225 200.565 62.9727 200.5C63.0228 200.436 63.0853 200.382 63.1566 200.341L101.709 177.929C101.779 177.885 101.858 177.857 101.94 177.844C102.022 177.831 102.106 177.836 102.187 177.856C102.267 177.876 102.343 177.913 102.409 177.963C102.475 178.013 102.531 178.076 102.572 178.147C102.614 178.219 102.64 178.299 102.651 178.381C102.661 178.464 102.655 178.547 102.632 178.627C102.609 178.707 102.571 178.782 102.519 178.846C102.467 178.911 102.403 178.965 102.33 179.004L63.8045 201.404C63.7014 201.465 63.5838 201.497 63.4639 201.497Z" fill="#37474F"/>
<path d="M68.5576 204.389C68.4495 204.389 68.3433 204.361 68.2496 204.307C68.1559 204.253 68.0778 204.175 68.0232 204.082C67.9815 204.012 67.9543 203.934 67.9432 203.853C67.9321 203.772 67.9373 203.689 67.9584 203.61C67.9796 203.531 68.0163 203.457 68.0664 203.393C68.1165 203.328 68.1791 203.274 68.2503 203.234L106.802 180.821C106.873 180.77 106.953 180.735 107.038 180.717C107.123 180.699 107.211 180.699 107.296 180.717C107.381 180.735 107.461 180.77 107.531 180.821C107.601 180.872 107.66 180.937 107.704 181.012C107.748 181.087 107.775 181.171 107.784 181.257C107.794 181.343 107.785 181.431 107.759 181.513C107.732 181.596 107.689 181.672 107.631 181.737C107.573 181.802 107.503 181.854 107.424 181.89L68.8716 204.303C68.7769 204.36 68.6683 204.39 68.5576 204.389Z" fill="#37474F"/>
<path d="M73.6263 207.275C73.4904 207.274 73.3584 207.229 73.2506 207.146C73.1428 207.064 73.0652 206.948 73.0295 206.817C72.9939 206.685 73.0023 206.546 73.0533 206.42C73.1044 206.294 73.1954 206.189 73.3123 206.119L111.864 183.707C112.007 183.63 112.173 183.611 112.329 183.655C112.485 183.699 112.617 183.802 112.698 183.942C112.779 184.082 112.802 184.249 112.763 184.406C112.723 184.562 112.624 184.698 112.486 184.782L73.9336 207.195C73.8391 207.246 73.7337 207.273 73.6263 207.275Z" fill="#37474F"/>
<path d="M78.6883 210.168C78.5799 210.164 78.4741 210.134 78.3798 210.081C78.2855 210.027 78.2057 209.952 78.1472 209.86C78.0666 209.717 78.0453 209.549 78.0878 209.39C78.1302 209.231 78.2331 209.096 78.3743 209.012L116.906 186.6C116.977 186.549 117.057 186.513 117.142 186.495C117.227 186.477 117.315 186.477 117.4 186.495C117.485 186.513 117.565 186.549 117.635 186.599C117.705 186.65 117.764 186.715 117.808 186.791C117.852 186.866 117.879 186.949 117.888 187.035C117.898 187.122 117.889 187.209 117.863 187.292C117.836 187.374 117.793 187.451 117.735 187.516C117.677 187.58 117.607 187.633 117.528 187.668L78.9956 210.088C78.9026 210.142 78.7962 210.17 78.6883 210.168Z" fill="#37474F"/>
<path d="M83.7552 213.054C83.6193 213.053 83.4873 213.008 83.3795 212.925C83.2717 212.842 83.1941 212.726 83.1584 212.595C83.1228 212.464 83.1312 212.325 83.1823 212.199C83.2333 212.073 83.3243 211.967 83.4412 211.898L121.993 189.485C122.136 189.402 122.306 189.379 122.466 189.421C122.625 189.463 122.762 189.566 122.845 189.709C122.928 189.852 122.952 190.022 122.91 190.181C122.868 190.341 122.764 190.478 122.621 190.561L84.0625 212.973C83.9687 213.026 83.8628 213.054 83.7552 213.054Z" fill="#37474F"/>
<path d="M88.8524 215.946C88.744 215.942 88.6381 215.913 88.5438 215.859C88.4496 215.806 88.3697 215.73 88.3113 215.639C88.2307 215.496 88.2094 215.327 88.2518 215.168C88.2943 215.01 88.3971 214.874 88.5384 214.79L127.091 192.378C127.161 192.33 127.24 192.297 127.324 192.281C127.408 192.265 127.494 192.266 127.577 192.285C127.66 192.303 127.738 192.339 127.807 192.389C127.876 192.439 127.933 192.503 127.977 192.576C128.02 192.65 128.047 192.731 128.058 192.816C128.068 192.9 128.061 192.986 128.037 193.067C128.012 193.149 127.972 193.225 127.917 193.29C127.862 193.355 127.795 193.409 127.718 193.447L89.1597 215.859C89.0678 215.917 88.961 215.947 88.8524 215.946Z" fill="#37474F"/>
<path d="M93.881 218.833C93.7726 218.834 93.6659 218.806 93.572 218.752C93.478 218.698 93.4002 218.62 93.3466 218.525C93.2637 218.383 93.2404 218.215 93.2817 218.056C93.323 217.897 93.4256 217.76 93.5671 217.677L132.119 195.264C132.19 195.223 132.268 195.196 132.349 195.184C132.43 195.173 132.512 195.178 132.591 195.2C132.67 195.221 132.744 195.257 132.809 195.308C132.873 195.358 132.927 195.42 132.968 195.492C133.05 195.633 133.074 195.802 133.033 195.961C132.991 196.12 132.889 196.256 132.747 196.34L94.195 218.772C94.0974 218.82 93.9891 218.84 93.881 218.833Z" fill="#37474F"/>
<path d="M98.9466 221.724C98.8107 221.724 98.6787 221.679 98.5709 221.596C98.4631 221.513 98.3855 221.397 98.3499 221.266C98.3142 221.135 98.3226 220.996 98.3737 220.87C98.4247 220.744 98.5157 220.638 98.6326 220.569L137.185 198.156C137.326 198.086 137.488 198.072 137.639 198.116C137.79 198.161 137.918 198.262 137.998 198.397C138.078 198.533 138.103 198.694 138.069 198.848C138.034 199.001 137.943 199.136 137.813 199.225L99.2606 221.638C99.1659 221.695 99.0572 221.725 98.9466 221.724Z" fill="#37474F"/>
<path d="M104.01 224.611C103.902 224.612 103.795 224.584 103.701 224.53C103.607 224.476 103.529 224.398 103.476 224.304C103.393 224.162 103.369 223.993 103.411 223.834C103.452 223.675 103.555 223.539 103.696 223.455L142.255 201.043C142.325 201.001 142.403 200.974 142.484 200.963C142.565 200.952 142.648 200.957 142.727 200.978C142.806 200.999 142.88 201.036 142.944 201.086C143.009 201.136 143.063 201.199 143.103 201.27C143.184 201.413 143.205 201.582 143.163 201.74C143.12 201.899 143.017 202.035 142.876 202.118L104.324 224.531C104.227 224.583 104.12 224.61 104.01 224.611Z" fill="#37474F"/>
<path d="M109.072 227.504C108.936 227.503 108.804 227.458 108.696 227.375C108.588 227.292 108.51 227.176 108.475 227.045C108.439 226.914 108.448 226.775 108.499 226.649C108.55 226.523 108.641 226.417 108.758 226.348L147.316 203.935C147.458 203.853 147.627 203.829 147.786 203.871C147.945 203.912 148.081 204.014 148.165 204.156C148.245 204.299 148.267 204.468 148.224 204.626C148.182 204.785 148.079 204.921 147.938 205.004L109.386 227.417C109.291 227.474 109.182 227.504 109.072 227.504Z" fill="#37474F"/>
<path d="M114.136 230.39C114.027 230.391 113.921 230.363 113.827 230.309C113.733 230.255 113.655 230.177 113.601 230.082C113.56 230.012 113.532 229.934 113.521 229.853C113.51 229.772 113.515 229.689 113.537 229.61C113.558 229.531 113.594 229.457 113.645 229.393C113.695 229.328 113.757 229.274 113.828 229.234L152.381 206.822C152.451 206.778 152.53 206.749 152.612 206.737C152.694 206.724 152.778 206.728 152.858 206.748C152.939 206.769 153.014 206.805 153.081 206.855C153.147 206.905 153.202 206.968 153.244 207.04C153.285 207.112 153.312 207.191 153.322 207.274C153.333 207.356 153.326 207.44 153.304 207.52C153.281 207.6 153.243 207.674 153.191 207.739C153.139 207.804 153.075 207.858 153.002 207.897L114.45 230.31C114.353 230.362 114.245 230.389 114.136 230.39Z" fill="#37474F"/>
<path d="M119.198 233.282C119.09 233.282 118.984 233.253 118.89 233.199C118.797 233.146 118.719 233.068 118.664 232.975C118.624 232.904 118.599 232.825 118.59 232.744C118.581 232.663 118.588 232.581 118.611 232.502C118.634 232.424 118.672 232.351 118.724 232.287C118.775 232.224 118.839 232.172 118.911 232.133L157.463 209.721C157.534 209.67 157.614 209.634 157.699 209.616C157.784 209.598 157.871 209.598 157.956 209.616C158.041 209.634 158.122 209.67 158.192 209.721C158.262 209.771 158.321 209.837 158.365 209.912C158.408 209.987 158.436 210.07 158.445 210.156C158.455 210.243 158.446 210.33 158.419 210.413C158.393 210.495 158.35 210.572 158.292 210.637C158.234 210.702 158.164 210.754 158.084 210.789L119.512 233.195C119.418 233.253 119.309 233.283 119.198 233.282Z" fill="#37474F"/>
<path d="M104.21 217.57L73.3867 199.78V157.527L104.21 175.324V217.57Z" fill="#BA68C8"/>
<path d="M104.211 217.57V175.324L135.027 157.527V199.78L104.211 217.57Z" fill="#BA68C8"/>
<path opacity="0.5" d="M104.21 217.57L73.3867 199.78V157.527L104.21 175.324V217.57Z" fill="black"/>
<path opacity="0.7" d="M104.211 217.57V175.324L135.027 157.527V199.78L104.211 217.57Z" fill="black"/>
<path d="M104.211 173.6L70.9961 154.427L104.211 135.248L137.419 154.427L104.211 173.6Z" fill="#BA68C8"/>
<path d="M85.4375 146.084L118.652 165.263L122.974 162.764L89.7663 143.592L85.4375 146.084Z" fill="#BA68C8"/>
<path opacity="0.8" d="M85.4375 146.084L118.652 165.263L122.974 162.764L89.7663 143.592L85.4375 146.084Z" fill="white"/>
<path d="M122.974 146.084L89.7663 165.263L85.4375 162.764L118.652 143.592L122.974 146.084Z" fill="#BA68C8"/>
<path opacity="0.8" d="M122.974 146.084L89.7663 165.263L85.4375 162.764L118.652 143.592L122.974 146.084Z" fill="white"/>
<path d="M104.211 180.234L70.9961 161.055V154.428L104.211 173.6V180.234Z" fill="#BA68C8"/>
<path d="M104.211 180.234V173.6L137.419 154.428V161.061L104.211 180.234Z" fill="#BA68C8"/>
<path opacity="0.3" d="M104.211 180.234L70.9961 161.055V154.428L104.211 173.6V180.234Z" fill="black"/>
<path opacity="0.5" d="M104.211 180.234V173.6L137.419 154.428V161.061L104.211 180.234Z" fill="black"/>
<path d="M89.7663 209.26L85.4375 206.781V162.765L89.7663 165.263V209.26Z" fill="#BA68C8"/>
<path d="M118.652 209.26L122.975 206.781V162.765L118.652 165.263V209.26Z" fill="#BA68C8"/>
<path d="M120.055 171.836C120.031 172.303 119.898 172.757 119.666 173.162C119.434 173.567 119.109 173.912 118.719 174.168C117.977 174.602 117.383 174.248 117.383 173.393C117.408 172.926 117.542 172.472 117.774 172.066C118.006 171.66 118.329 171.313 118.719 171.055C119.454 170.627 120.055 170.975 120.055 171.836Z" fill="#BA68C8"/>
<path d="M134.078 163.74C134.054 164.206 133.92 164.66 133.688 165.065C133.456 165.47 133.132 165.814 132.742 166.071C131.994 166.499 131.406 166.151 131.406 165.296C131.43 164.829 131.563 164.374 131.795 163.968C132.027 163.561 132.352 163.216 132.742 162.958C133.477 162.531 134.078 162.878 134.078 163.74Z" fill="#BA68C8"/>
<path d="M118.703 172.965C118.526 172.965 118.356 172.895 118.231 172.77C118.106 172.645 118.035 172.475 118.035 172.297V162.998C118.041 161.069 118.543 159.174 119.493 157.496C120.443 155.817 121.809 154.41 123.46 153.412L126.746 151.408C127.408 151.009 128.165 150.793 128.938 150.783C129.711 150.772 130.472 150.967 131.145 151.348C131.818 151.728 132.378 152.281 132.767 152.949C133.156 153.617 133.361 154.376 133.36 155.149V164.181C133.36 164.358 133.289 164.528 133.164 164.653C133.039 164.778 132.869 164.849 132.692 164.849C132.515 164.849 132.345 164.778 132.219 164.653C132.094 164.528 132.024 164.358 132.024 164.181V155.182C132.024 154.64 131.881 154.108 131.608 153.64C131.336 153.171 130.943 152.784 130.472 152.517C130 152.25 129.466 152.113 128.924 152.12C128.382 152.127 127.852 152.278 127.388 152.557L124.101 154.528C122.641 155.409 121.432 156.651 120.591 158.135C119.75 159.618 119.304 161.293 119.298 162.998V172.317C119.294 172.479 119.231 172.634 119.122 172.753C119.013 172.872 118.864 172.948 118.703 172.965Z" fill="#BA68C8"/>
<path opacity="0.9" d="M118.703 172.965C118.526 172.965 118.356 172.895 118.231 172.77C118.106 172.645 118.035 172.475 118.035 172.297V162.998C118.041 161.069 118.543 159.174 119.493 157.496C120.443 155.817 121.809 154.41 123.46 153.412L126.746 151.408C127.408 151.009 128.165 150.793 128.938 150.783C129.711 150.772 130.472 150.967 131.145 151.348C131.818 151.728 132.378 152.281 132.767 152.949C133.156 153.617 133.361 154.376 133.36 155.149V164.181C133.36 164.358 133.289 164.528 133.164 164.653C133.039 164.778 132.869 164.849 132.692 164.849C132.515 164.849 132.345 164.778 132.219 164.653C132.094 164.528 132.024 164.358 132.024 164.181V155.182C132.024 154.64 131.881 154.108 131.608 153.64C131.336 153.171 130.943 152.784 130.472 152.517C130 152.25 129.466 152.113 128.924 152.12C128.382 152.127 127.852 152.278 127.388 152.557L124.101 154.528C122.641 155.409 121.432 156.651 120.591 158.135C119.75 159.618 119.304 161.293 119.298 162.998V172.317C119.294 172.479 119.231 172.634 119.122 172.753C119.013 172.872 118.864 172.948 118.703 172.965Z" fill="black"/>
<path d="M139.895 155.877L155.881 165.884V211.19L139.895 201.183V155.877Z" fill="#BA68C8"/>
<path d="M108.238 219.46V174.154L139.896 155.877V201.183L108.238 219.46Z" fill="#BA68C8"/>
<path opacity="0.3" d="M108.238 219.46V174.154L139.896 155.877V201.183L108.238 219.46Z" fill="black"/>
<path d="M110.527 206.079L114.949 180.173C115.352 177.83 116.265 175.604 117.624 173.653C118.983 171.702 120.754 170.074 122.812 168.883L139.399 159.317C140.337 158.776 141.393 158.474 142.475 158.437C143.557 158.399 144.632 158.628 145.605 159.103C146.578 159.578 147.419 160.284 148.055 161.16C148.691 162.036 149.103 163.055 149.253 164.127L153.649 195.324C154.246 199.579 153.166 203.899 150.637 207.372C148.108 210.845 144.327 213.199 140.094 213.935L121.583 217.142C120.073 217.399 118.524 217.29 117.065 216.824C115.605 216.359 114.279 215.551 113.196 214.468C112.114 213.384 111.306 212.058 110.842 210.598C110.378 209.139 110.27 207.589 110.527 206.079Z" fill="#BA68C8"/>
<path opacity="0.8" d="M110.527 206.079L114.949 180.173C115.352 177.83 116.265 175.604 117.624 173.653C118.983 171.702 120.754 170.074 122.812 168.883L139.399 159.317C140.337 158.776 141.393 158.474 142.475 158.437C143.557 158.399 144.632 158.628 145.605 159.103C146.578 159.578 147.419 160.284 148.055 161.16C148.691 162.036 149.103 163.055 149.253 164.127L153.649 195.324C154.246 199.579 153.166 203.899 150.637 207.372C148.108 210.845 144.327 213.199 140.094 213.935L121.583 217.142C120.073 217.399 118.524 217.29 117.065 216.824C115.605 216.359 114.279 215.551 113.196 214.468C112.114 213.384 111.306 212.058 110.842 210.598C110.378 209.139 110.27 207.589 110.527 206.079Z" fill="white"/>
<path d="M124.23 229.467V184.161L155.882 165.884V211.19L124.23 229.467Z" fill="#BA68C8"/>
<path opacity="0.5" d="M124.23 229.467V184.161L155.882 165.884V211.19L124.23 229.467Z" fill="black"/>
<path d="M108.238 174.154L124.231 184.161V229.467L108.238 219.46V174.154Z" fill="#BA68C8"/>
<path opacity="0.3" d="M116.234 216.367V179.164L124.231 184.161V229.467L116.234 216.367Z" fill="black"/>
<path d="M134.391 182.552C134.367 183.019 134.234 183.474 134.002 183.88C133.77 184.286 133.445 184.632 133.055 184.89C132.313 185.317 131.719 184.97 131.719 184.108C131.742 183.642 131.875 183.188 132.108 182.782C132.34 182.377 132.664 182.033 133.055 181.777C133.79 181.363 134.391 181.697 134.391 182.552Z" fill="#BA68C8"/>
<path d="M148.418 174.455C148.394 174.921 148.261 175.375 148.029 175.78C147.797 176.185 147.472 176.53 147.082 176.786C146.334 177.221 145.746 176.873 145.746 176.011C145.769 175.545 145.902 175.091 146.134 174.685C146.366 174.28 146.691 173.936 147.082 173.68C147.81 173.246 148.418 173.6 148.418 174.455Z" fill="#BA68C8"/>
<path d="M133.043 183.68C132.866 183.68 132.696 183.61 132.571 183.484C132.445 183.359 132.375 183.189 132.375 183.012V173.72C132.38 171.789 132.882 169.892 133.833 168.211C134.785 166.531 136.153 165.124 137.806 164.127L141.093 162.156C141.755 161.759 142.51 161.544 143.282 161.535C144.054 161.525 144.815 161.72 145.487 162.1C146.159 162.481 146.717 163.033 147.106 163.7C147.495 164.367 147.7 165.125 147.7 165.897V174.935C147.724 175.034 147.726 175.137 147.705 175.236C147.684 175.335 147.641 175.429 147.578 175.509C147.516 175.589 147.436 175.654 147.345 175.698C147.253 175.743 147.153 175.766 147.052 175.766C146.95 175.766 146.85 175.743 146.759 175.698C146.667 175.654 146.587 175.589 146.525 175.509C146.463 175.429 146.419 175.335 146.398 175.236C146.377 175.137 146.379 175.034 146.404 174.935V165.897C146.403 165.355 146.258 164.823 145.985 164.355C145.711 163.886 145.319 163.499 144.847 163.232C144.375 162.966 143.841 162.829 143.298 162.835C142.756 162.842 142.226 162.993 141.761 163.272L138.474 165.242C137.014 166.125 135.806 167.368 134.966 168.853C134.125 170.338 133.682 172.014 133.678 173.72V183.032C133.673 183.2 133.605 183.36 133.487 183.48C133.37 183.6 133.211 183.672 133.043 183.68Z" fill="#BA68C8"/>
<path opacity="0.9" d="M133.043 183.68C132.866 183.68 132.696 183.61 132.571 183.484C132.445 183.359 132.375 183.189 132.375 183.012V173.72C132.38 171.789 132.882 169.892 133.833 168.211C134.785 166.531 136.153 165.124 137.806 164.127L141.093 162.156C141.755 161.759 142.51 161.544 143.282 161.535C144.054 161.525 144.815 161.72 145.487 162.1C146.159 162.481 146.717 163.033 147.106 163.7C147.495 164.367 147.7 165.125 147.7 165.897V174.935C147.724 175.034 147.726 175.137 147.705 175.236C147.684 175.335 147.641 175.429 147.578 175.509C147.516 175.589 147.436 175.654 147.345 175.698C147.253 175.743 147.153 175.766 147.052 175.766C146.95 175.766 146.85 175.743 146.759 175.698C146.667 175.654 146.587 175.589 146.525 175.509C146.463 175.429 146.419 175.335 146.398 175.236C146.377 175.137 146.379 175.034 146.404 174.935V165.897C146.403 165.355 146.258 164.823 145.985 164.355C145.711 163.886 145.319 163.499 144.847 163.232C144.375 162.966 143.841 162.829 143.298 162.835C142.756 162.842 142.226 162.993 141.761 163.272L138.474 165.242C137.014 166.125 135.806 167.368 134.966 168.853C134.125 170.338 133.682 172.014 133.678 173.72V183.032C133.673 183.2 133.605 183.36 133.487 183.48C133.37 183.6 133.211 183.672 133.043 183.68Z" fill="black"/>
<path d="M144.226 215.66C143.95 215.66 143.681 215.569 143.463 215.4C143.245 215.231 143.089 214.995 143.02 214.727C142.951 214.46 142.973 214.178 143.082 213.924C143.192 213.671 143.383 213.461 143.624 213.328L184.742 190.715C185.027 190.584 185.352 190.566 185.65 190.664C185.948 190.762 186.198 190.97 186.35 191.245C186.501 191.52 186.543 191.842 186.467 192.147C186.39 192.451 186.201 192.716 185.938 192.886L144.82 215.499C144.639 215.604 144.434 215.659 144.226 215.66Z" fill="#37474F"/>
<path d="M121.679 236.429C121.454 236.427 121.235 236.364 121.044 236.246C120.853 236.129 120.698 235.96 120.596 235.761C120.517 235.618 120.467 235.461 120.449 235.3C120.431 235.138 120.445 234.974 120.49 234.817C120.536 234.661 120.611 234.515 120.713 234.388C120.815 234.261 120.941 234.155 121.084 234.077L162.195 211.444C162.483 211.294 162.818 211.263 163.129 211.357C163.44 211.451 163.702 211.664 163.858 211.948C164.014 212.233 164.053 212.568 163.965 212.88C163.878 213.193 163.672 213.459 163.391 213.622L122.253 236.275C122.077 236.373 121.88 236.425 121.679 236.429Z" fill="#37474F"/>
<path d="M152.142 219.267C152.056 219.267 151.972 219.25 151.893 219.215C151.815 219.181 151.745 219.13 151.688 219.067C151.576 218.946 151.518 218.786 151.524 218.622C151.53 218.458 151.601 218.303 151.721 218.191L174.267 197.396C174.388 197.284 174.548 197.226 174.712 197.232C174.875 197.238 175.03 197.309 175.142 197.429C175.254 197.551 175.313 197.712 175.307 197.877C175.3 198.042 175.229 198.198 175.109 198.311L152.563 219.08C152.508 219.137 152.443 219.183 152.371 219.215C152.299 219.247 152.221 219.265 152.142 219.267Z" fill="#37474F"/>
<path d="M132.434 230.049C132.348 230.049 132.263 230.031 132.185 229.997C132.107 229.962 132.037 229.912 131.979 229.848C131.924 229.789 131.88 229.719 131.852 229.643C131.823 229.566 131.81 229.485 131.813 229.404C131.816 229.322 131.835 229.242 131.87 229.168C131.904 229.094 131.953 229.028 132.013 228.973L154.559 208.197C154.619 208.142 154.689 208.099 154.766 208.071C154.843 208.043 154.924 208.03 155.006 208.034C155.087 208.037 155.167 208.057 155.242 208.091C155.316 208.125 155.382 208.174 155.437 208.234C155.493 208.294 155.536 208.365 155.564 208.441C155.592 208.518 155.604 208.599 155.601 208.681C155.598 208.762 155.578 208.843 155.544 208.917C155.509 208.991 155.461 209.057 155.401 209.113L132.855 229.888C132.739 229.992 132.589 230.049 132.434 230.049Z" fill="#37474F"/>
<path d="M142.039 224.624C141.954 224.625 141.869 224.607 141.791 224.573C141.712 224.538 141.642 224.487 141.585 224.424C141.529 224.365 141.486 224.295 141.457 224.218C141.428 224.142 141.415 224.061 141.418 223.979C141.422 223.898 141.441 223.818 141.475 223.744C141.509 223.67 141.558 223.604 141.618 223.549L164.164 202.773C164.224 202.718 164.294 202.676 164.37 202.648C164.446 202.62 164.527 202.607 164.608 202.611C164.689 202.614 164.768 202.634 164.842 202.668C164.915 202.702 164.981 202.75 165.036 202.81C165.091 202.869 165.134 202.939 165.161 203.015C165.189 203.092 165.202 203.172 165.198 203.253C165.195 203.334 165.176 203.414 165.141 203.487C165.107 203.561 165.059 203.627 164.999 203.682L142.46 224.457C142.347 224.566 142.196 224.626 142.039 224.624Z" fill="#37474F"/>
<path d="M121.677 236.428C121.462 236.428 121.25 236.373 121.062 236.268L57.8264 200.067C57.5412 199.904 57.3324 199.634 57.2459 199.317C57.1595 199.001 57.2025 198.662 57.3655 198.377C57.5285 198.092 57.7981 197.883 58.1151 197.796C58.4321 197.71 58.7704 197.753 59.0556 197.916L121.503 233.696L142.139 214.684L56.3234 165.516C56.0381 165.353 55.8293 165.084 55.7429 164.767C55.6564 164.45 55.6994 164.112 55.8624 163.826C56.0254 163.541 56.2951 163.332 56.612 163.246C56.929 163.159 57.2673 163.202 57.5526 163.365L144.838 213.374C145.01 213.471 145.156 213.606 145.265 213.771C145.374 213.935 145.442 214.122 145.465 214.318C145.487 214.514 145.462 214.712 145.393 214.896C145.323 215.081 145.211 215.246 145.065 215.378L122.519 236.154C122.283 236.348 121.982 236.446 121.677 236.428Z" fill="#455A64"/>
<path d="M62.8718 202.118C62.7906 202.118 62.7101 202.102 62.6351 202.07C62.5601 202.039 62.492 201.993 62.4349 201.935C62.3777 201.878 62.3326 201.809 62.3021 201.734C62.2716 201.658 62.2564 201.578 62.2572 201.497V167.808C62.2482 167.721 62.2575 167.634 62.2845 167.551C62.3114 167.468 62.3554 167.392 62.4137 167.327C62.4719 167.263 62.5431 167.211 62.6226 167.176C62.7021 167.14 62.7882 167.122 62.8752 167.122C62.9622 167.122 63.0482 167.14 63.1277 167.176C63.2072 167.211 63.2784 167.263 63.3367 167.327C63.3949 167.392 63.4389 167.468 63.4659 167.551C63.4928 167.634 63.5021 167.721 63.4931 167.808V201.497C63.494 201.578 63.4785 201.66 63.4476 201.735C63.4167 201.811 63.371 201.88 63.3131 201.938C63.2553 201.996 63.1864 202.041 63.1106 202.072C63.0349 202.103 62.9537 202.119 62.8718 202.118Z" fill="#455A64"/>
<path d="M67.941 205.011C67.8594 205.011 67.7786 204.995 67.7033 204.963C67.6279 204.932 67.5594 204.886 67.5017 204.829C67.444 204.771 67.3983 204.703 67.367 204.627C67.3358 204.552 67.3197 204.471 67.3197 204.389V170.674C67.3107 170.587 67.32 170.5 67.347 170.417C67.3739 170.334 67.4179 170.258 67.4762 170.194C67.5344 170.129 67.6056 170.077 67.6851 170.042C67.7646 170.007 67.8507 169.988 67.9377 169.988C68.0247 169.988 68.1107 170.007 68.1902 170.042C68.2697 170.077 68.3409 170.129 68.3992 170.194C68.4574 170.258 68.5014 170.334 68.5284 170.417C68.5553 170.5 68.5646 170.587 68.5556 170.674V204.363C68.5592 204.446 68.546 204.529 68.5168 204.607C68.4876 204.685 68.443 204.757 68.3857 204.817C68.3283 204.878 68.2594 204.926 68.183 204.959C68.1066 204.992 68.0243 205.01 67.941 205.011Z" fill="#455A64"/>
<path d="M73.0041 207.896C72.9223 207.897 72.8411 207.882 72.7653 207.851C72.6895 207.82 72.6207 207.774 72.5628 207.716C72.5049 207.658 72.4592 207.59 72.4283 207.514C72.3974 207.438 72.382 207.357 72.3828 207.275V173.586C72.3828 173.421 72.4483 173.263 72.5648 173.147C72.6813 173.03 72.8393 172.965 73.0041 172.965C73.1689 172.965 73.3269 173.03 73.4434 173.147C73.5599 173.263 73.6254 173.421 73.6254 173.586V207.275C73.6254 207.44 73.5599 207.598 73.4434 207.714C73.3269 207.831 73.1689 207.896 73.0041 207.896Z" fill="#455A64"/>
<path d="M78.0705 210.789C77.9057 210.789 77.7477 210.723 77.6312 210.607C77.5147 210.49 77.4492 210.332 77.4492 210.168V176.479C77.4492 176.314 77.5147 176.156 77.6312 176.039C77.7477 175.923 77.9057 175.857 78.0705 175.857C78.2353 175.857 78.3933 175.923 78.5098 176.039C78.6263 176.156 78.6918 176.314 78.6918 176.479V210.168C78.6918 210.332 78.6263 210.49 78.5098 210.607C78.3933 210.723 78.2353 210.789 78.0705 210.789Z" fill="#455A64"/>
<path d="M83.133 213.675C82.9682 213.675 82.8102 213.61 82.6937 213.493C82.5772 213.377 82.5117 213.219 82.5117 213.054V179.359C82.5117 179.194 82.5772 179.036 82.6937 178.919C82.8102 178.803 82.9682 178.737 83.133 178.737C83.2978 178.737 83.4558 178.803 83.5723 178.919C83.6888 179.036 83.7543 179.194 83.7543 179.359V213.047C83.7551 213.13 83.7397 213.211 83.7089 213.287C83.6781 213.363 83.6325 213.433 83.5747 213.491C83.5169 213.549 83.4481 213.596 83.3723 213.627C83.2965 213.659 83.2151 213.675 83.133 213.675Z" fill="#455A64"/>
<path d="M88.1838 216.568C88.019 216.568 87.861 216.503 87.7445 216.386C87.628 216.27 87.5625 216.112 87.5625 215.947V182.258C87.5625 182.093 87.628 181.935 87.7445 181.819C87.861 181.702 88.019 181.637 88.1838 181.637C88.3485 181.637 88.5066 181.702 88.6231 181.819C88.7396 181.935 88.805 182.093 88.805 182.258V215.947C88.805 216.112 88.7396 216.27 88.6231 216.386C88.5066 216.503 88.3485 216.568 88.1838 216.568Z" fill="#455A64"/>
<path d="M93.258 219.441C93.0932 219.441 92.9352 219.375 92.8187 219.259C92.7022 219.142 92.6367 218.984 92.6367 218.819V185.144C92.6367 184.979 92.7022 184.821 92.8187 184.704C92.9352 184.588 93.0932 184.522 93.258 184.522C93.4228 184.522 93.5808 184.588 93.6973 184.704C93.8138 184.821 93.8793 184.979 93.8793 185.144V218.833C93.8758 218.995 93.8088 219.15 93.6926 219.263C93.5765 219.377 93.4205 219.441 93.258 219.441Z" fill="#455A64"/>
<path d="M98.3244 222.347C98.1596 222.347 98.0016 222.281 97.8851 222.165C97.7686 222.048 97.7031 221.89 97.7031 221.725V188.043C97.7031 187.878 97.7686 187.72 97.8851 187.604C98.0016 187.487 98.1596 187.422 98.3244 187.422C98.4892 187.422 98.6472 187.487 98.7637 187.604C98.8802 187.72 98.9457 187.878 98.9457 188.043V221.732C98.9439 221.896 98.8777 222.052 98.7614 222.167C98.645 222.282 98.488 222.347 98.3244 222.347Z" fill="#455A64"/>
<path d="M103.387 225.232C103.222 225.232 103.064 225.167 102.948 225.05C102.831 224.934 102.766 224.776 102.766 224.611V190.922C102.766 190.757 102.831 190.599 102.948 190.483C103.064 190.366 103.222 190.301 103.387 190.301C103.552 190.301 103.71 190.366 103.826 190.483C103.943 190.599 104.008 190.757 104.008 190.922V224.611C104.008 224.776 103.943 224.934 103.826 225.05C103.71 225.167 103.552 225.232 103.387 225.232Z" fill="#455A64"/>
<path d="M108.449 228.125C108.285 228.125 108.127 228.059 108.01 227.943C107.894 227.826 107.828 227.668 107.828 227.504V193.815C107.828 193.65 107.894 193.492 108.01 193.375C108.127 193.259 108.285 193.193 108.449 193.193C108.614 193.193 108.772 193.259 108.889 193.375C109.005 193.492 109.071 193.65 109.071 193.815V227.504C109.071 227.668 109.005 227.826 108.889 227.943C108.772 228.059 108.614 228.125 108.449 228.125Z" fill="#455A64"/>
<path d="M113.516 231.01C113.351 231.01 113.193 230.945 113.076 230.828C112.96 230.712 112.895 230.554 112.895 230.389V196.727C112.895 196.562 112.96 196.404 113.076 196.287C113.193 196.171 113.351 196.105 113.516 196.105C113.681 196.105 113.839 196.171 113.955 196.287C114.072 196.404 114.137 196.562 114.137 196.727V230.416C114.132 230.576 114.064 230.728 113.948 230.84C113.832 230.951 113.677 231.012 113.516 231.01Z" fill="#455A64"/>
<path d="M118.579 233.903C118.415 233.901 118.259 233.835 118.144 233.719C118.029 233.602 117.964 233.445 117.964 233.282V199.593C117.955 199.506 117.965 199.419 117.991 199.336C118.018 199.253 118.062 199.177 118.121 199.113C118.179 199.048 118.25 198.996 118.33 198.961C118.409 198.925 118.495 198.907 118.582 198.907C118.669 198.907 118.755 198.925 118.835 198.961C118.914 198.996 118.985 199.048 119.044 199.113C119.102 199.177 119.146 199.253 119.173 199.336C119.2 199.419 119.209 199.506 119.2 199.593V233.282C119.2 233.446 119.135 233.605 119.018 233.721C118.902 233.838 118.744 233.903 118.579 233.903Z" fill="#455A64"/>
<path d="M123.641 233.903C123.478 233.901 123.321 233.835 123.206 233.719C123.091 233.602 123.027 233.445 123.027 233.282V202.479C123.018 202.392 123.027 202.305 123.054 202.222C123.081 202.139 123.125 202.063 123.183 201.998C123.241 201.934 123.313 201.882 123.392 201.847C123.472 201.811 123.558 201.793 123.645 201.793C123.732 201.793 123.818 201.811 123.897 201.847C123.977 201.882 124.048 201.934 124.106 201.998C124.164 202.063 124.208 202.139 124.235 202.222C124.262 202.305 124.272 202.392 124.263 202.479V233.282C124.263 233.446 124.197 233.604 124.081 233.721C123.964 233.837 123.806 233.903 123.641 233.903Z" fill="#455A64"/>
<path d="M128.714 229.561C128.633 229.561 128.553 229.546 128.477 229.516C128.402 229.485 128.333 229.44 128.276 229.383C128.218 229.326 128.172 229.258 128.141 229.183C128.109 229.108 128.093 229.027 128.093 228.946V205.371C128.084 205.285 128.093 205.197 128.12 205.114C128.147 205.032 128.191 204.956 128.25 204.891C128.308 204.826 128.379 204.775 128.459 204.739C128.538 204.704 128.624 204.686 128.711 204.686C128.798 204.686 128.884 204.704 128.964 204.739C129.043 204.775 129.114 204.826 129.173 204.891C129.231 204.956 129.275 205.032 129.302 205.114C129.329 205.197 129.338 205.285 129.329 205.371V228.946C129.329 229.109 129.264 229.265 129.149 229.381C129.034 229.496 128.877 229.561 128.714 229.561Z" fill="#455A64"/>
<path d="M133.777 224.523C133.612 224.523 133.454 224.458 133.338 224.342C133.221 224.225 133.156 224.067 133.156 223.902V208.257C133.147 208.17 133.156 208.083 133.183 208C133.21 207.917 133.254 207.841 133.312 207.777C133.37 207.712 133.442 207.66 133.521 207.625C133.601 207.59 133.687 207.571 133.774 207.571C133.861 207.571 133.947 207.59 134.026 207.625C134.106 207.66 134.177 207.712 134.235 207.777C134.293 207.841 134.337 207.917 134.364 208C134.391 208.083 134.401 208.17 134.392 208.257V223.902C134.392 224.066 134.327 224.223 134.212 224.339C134.097 224.455 133.941 224.522 133.777 224.523Z" fill="#455A64"/>
<path d="M138.84 219.961C138.675 219.961 138.517 219.895 138.401 219.779C138.284 219.662 138.219 219.504 138.219 219.34V211.15C138.219 210.985 138.284 210.827 138.401 210.71C138.517 210.594 138.675 210.528 138.84 210.528C139.005 210.528 139.163 210.594 139.279 210.71C139.396 210.827 139.461 210.985 139.461 211.15V219.34C139.461 219.504 139.396 219.662 139.279 219.779C139.163 219.895 139.005 219.961 138.84 219.961Z" fill="#455A64"/>
<path d="M138.865 220.535C138.756 220.537 138.649 220.507 138.558 220.449L56.1491 173.239C56.0716 173.202 56.0025 173.15 55.9462 173.085C55.8898 173.021 55.8475 172.945 55.8217 172.864C55.7959 172.782 55.7874 172.696 55.7965 172.611C55.8057 172.525 55.8323 172.443 55.8748 172.369C55.9173 172.294 55.9748 172.23 56.0435 172.178C56.1123 172.127 56.1908 172.091 56.2743 172.072C56.3578 172.052 56.4444 172.051 56.5286 172.066C56.6128 172.082 56.6928 172.115 56.7637 172.163L139.172 219.373C139.315 219.456 139.419 219.591 139.461 219.75C139.504 219.909 139.482 220.079 139.399 220.222C139.346 220.316 139.268 220.396 139.175 220.451C139.081 220.506 138.974 220.535 138.865 220.535Z" fill="#455A64"/>
<path d="M133.03 225.62C132.922 225.618 132.817 225.591 132.722 225.54L57.1078 182.218C56.9785 182.13 56.8871 181.997 56.8519 181.844C56.8167 181.692 56.8402 181.532 56.9178 181.396C56.9954 181.26 57.1213 181.159 57.2704 181.112C57.4196 181.065 57.581 181.076 57.7224 181.142L133.337 224.464C133.459 224.53 133.555 224.634 133.61 224.761C133.665 224.888 133.675 225.03 133.64 225.164C133.604 225.297 133.525 225.415 133.414 225.498C133.303 225.581 133.168 225.624 133.03 225.62Z" fill="#455A64"/>
<path d="M127.595 230.957C127.487 230.956 127.381 230.926 127.288 230.87L57.5923 190.928C57.5213 190.889 57.459 190.835 57.4088 190.771C57.3586 190.708 57.3215 190.634 57.2998 190.556C57.278 190.478 57.272 190.396 57.2821 190.315C57.2922 190.235 57.3181 190.157 57.3584 190.086C57.441 189.944 57.5762 189.84 57.7348 189.796C57.8935 189.752 58.063 189.773 58.2068 189.853L127.929 229.794C128.05 229.862 128.144 229.968 128.197 230.095C128.251 230.223 128.26 230.364 128.224 230.497C128.188 230.631 128.109 230.748 127.998 230.831C127.888 230.915 127.753 230.959 127.615 230.957H127.595Z" fill="#455A64"/>
<path d="M52.3019 139.944C51.8906 139.943 51.4915 139.805 51.1665 139.553C50.8416 139.301 50.6092 138.948 50.5055 138.55C50.4018 138.153 50.4327 137.731 50.5933 137.353C50.7539 136.974 51.0352 136.659 51.3934 136.457L82.0293 119.282C82.4578 119.066 82.9529 119.024 83.4117 119.164C83.8705 119.304 84.2576 119.616 84.4926 120.034C84.7275 120.452 84.7921 120.945 84.673 121.41C84.5539 121.874 84.2602 122.275 83.8531 122.529L53.2104 139.704C52.933 139.86 52.6203 139.943 52.3019 139.944Z" fill="#BA68C8"/>
<path d="M48.7673 141.321C48.4929 141.32 48.2265 141.229 48.0095 141.061C47.7925 140.893 47.6372 140.658 47.5678 140.393C47.4984 140.127 47.5188 139.846 47.6258 139.594C47.7328 139.341 47.9204 139.131 48.1594 138.996L51.1856 137.299C51.3282 137.206 51.4885 137.144 51.6564 137.115C51.8244 137.087 51.9964 137.093 52.1617 137.134C52.3271 137.175 52.4824 137.249 52.6178 137.352C52.7532 137.455 52.866 137.586 52.9491 137.734C53.0321 137.883 53.0837 138.047 53.1007 138.217C53.1176 138.386 53.0995 138.557 53.0476 138.719C52.9956 138.882 52.9108 139.031 52.7985 139.159C52.6862 139.288 52.5487 139.391 52.3947 139.464L49.3752 141.161C49.1894 141.265 48.9802 141.32 48.7673 141.321Z" fill="#455A64"/>
<path d="M91.2757 119.844C90.4607 118.127 89.2716 115.395 87.6016 114.499L78.9906 109.215L60.6064 96.8232L49.8711 101.907C55.4959 108.033 73.6998 114.6 73.6998 114.6C73.8994 115.152 74.1499 115.684 74.448 116.19H74.3946C74.5215 116.477 78.6566 125.749 80.0261 125.609C80.6273 125.555 80.7342 124.747 80.6941 123.859L79.9526 120.271C80.8678 120.538 81.7028 120.699 82.3108 120.859C83.2193 121.1 84.1144 122.863 84.5887 123.665C84.7084 123.872 84.8685 124.052 85.0593 124.196C85.2502 124.34 85.468 124.444 85.6998 124.502C85.9315 124.559 86.1726 124.57 86.4087 124.533C86.6447 124.496 86.8709 124.412 87.0738 124.286L90.6678 122.068C90.9275 121.905 91.1385 121.675 91.2784 121.403C91.4183 121.13 91.482 120.824 91.4628 120.518C91.4516 120.282 91.3877 120.052 91.2757 119.844Z" fill="#FFA8A7"/>
<path d="M34.3054 64.043L27.2977 94.3316C26.8505 96.2841 27.1035 98.3317 28.0125 100.117C28.5411 101.147 29.2747 102.059 30.1683 102.795C31.0619 103.532 32.0966 104.078 33.2089 104.4C34.3213 104.722 35.4877 104.814 36.6366 104.669C37.7855 104.524 38.8927 104.145 39.8901 103.557L55.6691 94.238V64.043H34.3054Z" fill="#263238"/>
<path d="M37.4141 87.9382L53.4468 81.3982C54.6164 80.914 55.8872 80.7256 57.1469 80.8495C58.4066 80.9734 59.6163 81.4059 60.6691 82.1086C61.7219 82.8113 62.5853 83.7627 63.1829 84.8785C63.7804 85.9943 64.0938 87.2403 64.0953 88.506V96.99L39.8257 104.559L37.4141 87.9382Z" fill="#FFA8A7"/>
<path d="M52.2582 82.2527C52.2582 82.2527 57.3286 85.4192 58.0166 90.6766C58.0166 90.6766 55.2643 95.0789 46.5265 94.8251C46.5265 94.8251 44.5224 87.8374 41.0887 86.4479L37.4145 87.9376L37.1406 105.494L39.6391 109.074C39.9414 109.505 40.1216 110.009 40.1604 110.533C40.1992 111.058 40.0952 111.583 39.8595 112.054L37.7819 116.215C37.7819 116.215 41.5296 122.655 51.323 122.655C54.9339 122.577 58.3959 121.202 61.0762 118.781L60.7957 107.658C60.7957 107.658 73.201 99.2808 55.251 81.1104L52.2582 82.2527Z" fill="#BA68C8"/>
<path d="M38.7499 57.5292C38.7499 57.5292 37.8214 53.9953 37.1934 54.0554C36.5655 54.1156 36.6389 57.2152 36.6389 57.2152C36.6389 57.2152 33.6996 56.9547 34.0069 57.7964C34.3142 58.6381 37.7412 59.5066 37.7412 59.5066L38.7499 57.5292Z" fill="#263238"/>
<path d="M34.1805 69.801C35.5166 79.7814 43.9271 79.7814 43.9271 79.7814L61.5565 72.0256C62.5427 70.9714 63.1533 69.6211 63.2934 68.1844C63.4515 67.09 63.4515 65.9786 63.2934 64.8843V64.8509C62.7256 60.6556 59.5925 56.1665 52.7519 54.7569C51.254 54.4587 49.7298 54.3132 48.2025 54.3227C47.4664 54.3203 46.7305 54.356 45.998 54.4296C40.6538 54.9506 36.9596 57.4357 35.1893 61.2903C34.792 62.1621 34.4961 63.0766 34.3075 64.0158C33.9405 65.9234 33.8975 67.8792 34.1805 69.801Z" fill="#263238"/>
<path d="M45.9098 89.1271C46.5107 89.5946 47.2307 89.8842 47.9879 89.9629C48.7452 90.0415 49.5093 89.9061 50.1934 89.5721C50.8775 89.238 51.4542 88.7187 51.8578 88.0732C52.2614 87.4277 52.4758 86.6819 52.4766 85.9205V73.0342H43.9258V85.0588C43.9258 85.843 44.1045 86.617 44.4483 87.3219C44.7921 88.0268 45.2919 88.6441 45.9098 89.1271Z" fill="#FFA8A7"/>
<path d="M52.4766 84.2972C50.5745 83.5927 48.8356 82.5086 47.3657 81.111C45.8957 79.7134 44.7253 78.0314 43.9258 76.1673V73.0342H52.4766V84.2972Z" fill="#F28F8F"/>
<path d="M50.6269 57.3223C53.8735 57.3223 60.761 59.1326 61.5626 67.61C62.3642 76.0873 61.5626 82.6741 57.207 83.3087C52.8515 83.9434 42.6706 80.7702 41.3079 69.7877C39.9451 58.8053 47.4671 57.3223 50.6269 57.3223Z" fill="#FFA8A7"/>
<path d="M55.7305 71.2041V76.2077L58.6631 75.3058L55.7305 71.2041Z" fill="#F28F8F"/>
<path d="M51.4414 72.0652C51.4401 72.2676 51.4989 72.4659 51.6104 72.6349C51.7219 72.8038 51.8811 72.9359 52.0677 73.0142C52.2544 73.0926 52.4601 73.1138 52.6588 73.0752C52.8575 73.0365 53.0402 72.9397 53.1839 72.797C53.3275 72.6543 53.4255 72.4722 53.4655 72.2738C53.5054 72.0753 53.4856 71.8695 53.4084 71.6823C53.3313 71.4952 53.2003 71.3351 53.0321 71.2225C52.8638 71.1099 52.666 71.0498 52.4635 71.0498C52.1936 71.0498 51.9346 71.1566 51.7431 71.3468C51.5517 71.537 51.4432 71.7953 51.4414 72.0652Z" fill="#263238"/>
<path d="M58.1562 71.357C58.1562 71.5592 58.2162 71.7568 58.3285 71.9249C58.4408 72.093 58.6004 72.224 58.7872 72.3013C58.974 72.3787 59.1795 72.3989 59.3777 72.3595C59.576 72.3201 59.7581 72.2227 59.9011 72.0798C60.044 71.9368 60.1413 71.7547 60.1808 71.5565C60.2202 71.3582 60.2 71.1527 60.1226 70.9659C60.0453 70.7791 59.9143 70.6195 59.7462 70.5072C59.5781 70.3949 59.3805 70.335 59.1783 70.335C58.9073 70.335 58.6473 70.4426 58.4556 70.6343C58.2639 70.826 58.1562 71.086 58.1562 71.357Z" fill="#263238"/>
<path d="M60.4182 69.2331L58.4141 68.0507C58.4141 68.0507 59.1756 67.2558 59.9372 67.7301C60.1596 67.9028 60.3246 68.1389 60.4104 68.4071C60.4962 68.6754 60.499 68.9633 60.4182 69.2331Z" fill="#263238"/>
<path d="M57.1115 78.2319C56.1399 78.3009 55.1732 78.0421 54.3659 77.4971C54.3659 77.4971 54.1789 78.94 55.388 79.2206C55.7451 79.2786 56.1113 79.212 56.4251 79.0319C56.7389 78.8519 56.9813 78.5694 57.1115 78.2319Z" fill="#F28F8F"/>
<path d="M58.8482 60.2085C58.8482 60.2085 57.6257 71.9191 41.6998 72.2865C41.6998 72.2865 36.89 60.6494 46.376 56.8683C55.8621 53.0873 58.8482 60.2085 58.8482 60.2085Z" fill="#263238"/>
<path d="M44.3683 72.707C45.3903 74.484 45.1298 76.6351 43.7002 77.3833C42.785 77.8576 40.0728 76.8355 39.024 75.0585C37.9752 73.2815 38.5764 71.7651 39.9659 70.9635C41.3554 70.1618 43.3462 70.9367 44.3683 72.707Z" fill="#FFA8A7"/>
<path d="M39.7722 99.6884L37.1602 105.494C37.8835 105.498 38.5991 105.345 39.2578 105.046L40.4135 99.9021C40.4296 99.8208 40.4155 99.7363 40.3738 99.6646C40.3321 99.5929 40.2657 99.5388 40.187 99.5126C40.1083 99.4864 40.0228 99.4898 39.9464 99.5221C39.87 99.5545 39.8081 99.6136 39.7722 99.6884Z" fill="#F28F8F"/>
<path d="M64.7536 136.725C64.0462 134.967 62.8176 133.468 61.2331 132.429L59.7233 131.44C59.7233 131.44 63.8518 132.389 63.9052 131C63.9587 129.61 54.1119 125.996 54.1119 125.996L34.4116 111.052C34.4116 111.052 35.8011 108.781 37.4445 105.474C40.2569 105.32 41.9002 103.036 42.8288 100.798C43.6551 98.8521 43.8924 96.7067 43.5112 94.6275C43.13 92.5483 42.1472 90.6266 40.6844 89.1005C40.4914 88.8967 40.2862 88.7048 40.0698 88.526C39.6392 88.0786 39.1267 87.718 38.5601 87.4639L37.224 88.005C33.9261 89.3324 31.2449 91.8468 29.7086 95.0527C27.1835 100.33 23.5694 108.413 23.0283 112.776C22.1866 119.549 47.5451 130.291 47.5451 130.291C49.0816 135.636 53.711 137.593 55.7419 138.268C56.1813 138.412 56.588 138.641 56.9388 138.943C57.2895 139.244 57.5774 139.612 57.786 140.025C57.892 140.239 58.04 140.429 58.221 140.585C58.402 140.741 58.6124 140.858 58.8398 140.931C59.0672 141.004 59.3069 141.031 59.5448 141.009C59.7826 140.988 60.0137 140.919 60.2243 140.806L63.9587 138.802C64.3201 138.611 64.5999 138.295 64.7461 137.913C64.8923 137.531 64.895 137.108 64.7536 136.725Z" fill="#FFA8A7"/>
<path d="M39.2557 105.046L40.4114 99.9026C40.4221 99.8563 40.4227 99.8082 40.4133 99.7615C40.4039 99.7149 40.3846 99.6708 40.3568 99.6322C40.3289 99.5937 40.2932 99.5615 40.2519 99.5378C40.2106 99.5142 40.1648 99.4996 40.1174 99.4951C39.2757 101.66 38.3338 103.71 37.4453 105.507C38.0725 105.47 38.6868 105.313 39.2557 105.046Z" fill="#F28F8F"/>
</svg>
