<svg width="29" height="28" viewBox="0 0 29 28" fill="none" xmlns="http://www.w3.org/2000/svg">
<path d="M14.5 8.75V14" stroke="#4D0B6C" stroke-width="2" stroke-linecap="round" stroke-linejoin="round"/>
<path d="M19.05 16.625L14.5 14" stroke="#4D0B6C" stroke-width="2" stroke-linecap="round" stroke-linejoin="round"/>
<path d="M8.35156 10.9048H3.97656V6.52979" stroke="#4D0B6C" stroke-width="2" stroke-linecap="round" stroke-linejoin="round"/>
<path d="M7.69531 20.8031C9.04108 22.15 10.7561 23.0675 12.6234 23.4395C14.4906 23.8115 16.4263 23.6214 18.1855 22.8931C19.9447 22.1648 21.4484 20.9312 22.5063 19.3482C23.5643 17.7652 24.129 15.904 24.129 14C24.129 12.096 23.5643 10.2348 22.5063 8.65183C21.4484 7.06883 19.9447 5.83518 18.1855 5.10691C16.4263 4.37865 14.4906 4.1885 12.6234 4.56052C10.7561 4.93254 9.04108 5.85001 7.69531 7.19688L3.97656 10.9047" stroke="#4D0B6C" stroke-width="2" stroke-linecap="round" stroke-linejoin="round"/>
</svg>
