<svg width="19" height="19" viewBox="0 0 19 19" fill="none" xmlns="http://www.w3.org/2000/svg">
<path d="M15.8333 6.94336H8.70833C7.83388 6.94336 7.125 7.63416 7.125 8.4863V15.4295C7.125 16.2817 7.83388 16.9725 8.70833 16.9725H15.8333C16.7078 16.9725 17.4167 16.2817 17.4167 15.4295V8.4863C17.4167 7.63416 16.7078 6.94336 15.8333 6.94336Z" stroke="#4D0B6C" stroke-linecap="round" stroke-linejoin="round"/>
<path d="M3.95703 11.5721H3.16536C2.74544 11.5721 2.34271 11.4095 2.04578 11.1202C1.74885 10.8308 1.58203 10.4384 1.58203 10.0292V3.08591C1.58203 2.6767 1.74885 2.28424 2.04578 1.99489C2.34271 1.70553 2.74544 1.54297 3.16536 1.54297H10.2904C10.7103 1.54297 11.113 1.70553 11.41 1.99489C11.7069 2.28424 11.8737 2.6767 11.8737 3.08591V3.85738" stroke="#4D0B6C" stroke-linecap="round" stroke-linejoin="round"/>
</svg>
