<svg width="53" height="32" viewBox="0 0 53 32" fill="none" xmlns="http://www.w3.org/2000/svg">
<g clip-path="url(#clip0_7_9922)">
<path fill-rule="evenodd" clip-rule="evenodd" d="M38.2746 30.4001C30.1964 30.4001 23.6484 23.9534 23.6484 16.0001C23.6484 8.0468 30.1964 1.6001 38.2746 1.6001C46.3528 1.6001 52.9008 8.0468 52.9008 16.0001C52.9008 23.9534 46.3528 30.4001 38.2746 30.4001ZM40.0316 14.0138V11.8844H44.9807V8.6372H31.5054V11.8844H36.4546V14.0129C32.4324 14.1947 29.4075 14.9795 29.4075 15.9191C29.4075 16.8587 32.4324 17.6426 36.4546 17.8253V24.6491H40.0316V17.8235C44.0474 17.6417 47.0649 16.8578 47.0649 15.9191C47.0649 14.9804 44.0474 14.1965 40.0316 14.0138ZM40.0316 17.2448V17.243C39.931 17.2502 39.4127 17.2808 38.2563 17.2808C37.3331 17.2808 36.6831 17.2538 36.4546 17.243V17.2457C32.9004 17.0918 30.2476 16.4825 30.2476 15.7535C30.2476 15.0254 32.9004 14.4161 36.4546 14.2595V16.6391C36.6868 16.6553 37.3522 16.694 38.2719 16.694C39.3752 16.694 39.9283 16.649 40.0316 16.64V14.2613C43.5784 14.417 46.2249 15.0263 46.2249 15.7535C46.2249 16.4825 43.5784 17.09 40.0316 17.2448Z" fill="#199033"/>
</g>
<g clip-path="url(#clip1_7_9922)">
<path d="M13.3393 31.0353L13.3391 31.0353C4.89146 28.9621 -0.23163 20.5421 1.86999 12.2539L1.87003 12.2537C3.97235 3.95024 12.5105 -1.10875 20.961 0.965193L20.9615 0.965315C29.3959 3.02611 34.532 11.4459 32.4302 19.7467C30.3279 28.0501 21.777 33.1091 13.3393 31.0353Z" fill="url(#paint0_linear_7_9922)" stroke="#F3E8F7"/>
<path d="M24.8899 14.0062C25.2073 11.8812 23.5695 10.7312 21.3096 9.96865L22.0459 7.08115L20.2685 6.64365L19.5575 9.45615C19.0877 9.34365 18.6052 9.23115 18.1228 9.13115L18.8338 6.30615L17.0563 5.86865L16.3326 8.74365C15.939 8.65615 15.5581 8.56865 15.1899 8.48115V8.46865L12.7268 7.86865L12.2571 9.74365C12.2571 9.74365 13.5775 10.0437 13.5521 10.0562C14.2758 10.2312 14.4027 10.7062 14.3774 11.0812L13.5394 14.3687C13.5902 14.3812 13.6537 14.3937 13.7298 14.4312C13.6664 14.4187 13.6029 14.4062 13.5394 14.3812L12.3713 18.9812C12.2825 19.1937 12.0539 19.5187 11.5588 19.3937C11.5715 19.4187 10.2637 19.0812 10.2637 19.0812L9.375 21.0937L11.6984 21.6687C12.1301 21.7812 12.5491 21.8812 12.9681 21.9937L12.2317 24.9062L14.0092 25.3437L14.7455 22.4562C15.228 22.5812 15.7105 22.7062 16.1675 22.8187L15.4438 25.6937L17.2213 26.1312L17.9577 23.2187C21.0048 23.7812 23.2902 23.5562 24.2424 20.8437C25.0169 18.6687 24.2043 17.4062 22.6046 16.5812C23.7853 16.3187 24.6614 15.5562 24.8899 14.0062ZM20.8144 19.6312C20.2685 21.8062 16.5357 20.6312 15.3296 20.3312L16.3072 16.4687C17.5134 16.7687 21.3984 17.3562 20.8144 19.6312ZM21.373 13.9687C20.8652 15.9562 17.7673 14.9437 16.7643 14.6937L17.653 11.1937C18.656 11.4437 21.8936 11.9062 21.373 13.9687Z" fill="#F3E8F7"/>
</g>
<defs>
<linearGradient id="paint0_linear_7_9922" x1="17.141" y1="-0.00743585" x2="17.141" y2="31.997" gradientUnits="userSpaceOnUse">
<stop stop-color="#F9AA4B"/>
<stop offset="1" stop-color="#F7931A"/>
</linearGradient>
<clipPath id="clip0_7_9922">
<rect width="29.2523" height="28.8" fill="white" transform="translate(23.6484 1.6001)"/>
</clipPath>
<clipPath id="clip1_7_9922">
<rect width="32.5026" height="32" fill="white" transform="translate(0.898438)"/>
</clipPath>
</defs>
</svg>
