<svg width="28" height="28" viewBox="0 0 28 28" fill="none" xmlns="http://www.w3.org/2000/svg">
<g id="Icon / material-icon / backspace_black_24dp">
<path id="fill" d="M25.6667 3.5H8.16667C7.36167 3.5 6.73167 3.90833 6.31167 4.52667L0 14L6.31167 23.4617C6.73167 24.08 7.36167 24.5 8.16667 24.5H25.6667C26.95 24.5 28 23.45 28 22.1667V5.83333C28 4.55 26.95 3.5 25.6667 3.5ZM25.6667 22.1667H8.24833L2.8 14L8.23667 5.83333H25.6667V22.1667ZM12.145 19.8333L16.3333 15.645L20.5217 19.8333L22.1667 18.1883L17.9783 14L22.1667 9.81167L20.5217 8.16667L16.3333 12.355L12.145 8.16667L10.5 9.81167L14.6883 14L10.5 18.1883L12.145 19.8333Z" fill="#898989"/>
</g>
</svg>
