<svg width="28" height="28" viewBox="0 0 28 28" fill="none" xmlns="http://www.w3.org/2000/svg">
<path fill-rule="evenodd" clip-rule="evenodd" d="M8.75 1.75H19.25C19.9453 1.75288 20.6113 2.03037 21.103 2.52203C21.5946 3.01369 21.8721 3.67969 21.875 4.375V23.625C21.8721 24.3203 21.5946 24.9863 21.103 25.478C20.6113 25.9696 19.9453 26.2471 19.25 26.25H8.75C8.05469 26.2471 7.38869 25.9696 6.89703 25.478C6.40537 24.9863 6.12788 24.3203 6.125 23.625V4.375C6.12788 3.67969 6.40537 3.01369 6.89703 2.52203C7.38869 2.03037 8.05469 1.75288 8.75 1.75ZM19.25 3.5H8.75C8.51794 3.5 8.29538 3.59219 8.13128 3.75628C7.96719 3.92038 7.875 4.14294 7.875 4.375V5.25H20.125V4.375C20.125 4.14294 20.0328 3.92038 19.8687 3.75628C19.7046 3.59219 19.4821 3.5 19.25 3.5ZM8.75 24.5H19.25C19.4821 24.5 19.7046 24.4078 19.8687 24.2437C20.0328 24.0796 20.125 23.8571 20.125 23.625V22.75H7.875V23.625C7.875 23.8571 7.96719 24.0796 8.13128 24.2437C8.29538 24.4078 8.51794 24.5 8.75 24.5ZM17.66 14.7005L16.016 13.9995C15.9312 13.9615 15.8381 13.9457 15.7455 13.9537C15.6529 13.9616 15.5638 13.9931 15.4867 14.0451L14.6069 14.6304C14.0707 14.37 13.6366 13.9383 13.3731 13.4036L13.9549 12.5133C14.0066 12.4361 14.0381 12.3473 14.0466 12.2548C14.0552 12.1624 14.0406 12.0693 14.004 11.984L13.2995 10.34C13.2503 10.229 13.167 10.1365 13.0618 10.076C12.9565 10.0155 12.8347 9.9901 12.7141 10.0035C12.2407 10.0655 11.806 10.2973 11.4907 10.6558C11.1754 11.0142 11.0011 11.475 11 11.9524C11 14.7356 13.2644 17 16.0476 17C16.525 16.9989 16.9858 16.8246 17.3442 16.5093C17.7027 16.194 17.9345 15.7593 17.9965 15.2859C18.0099 15.1653 17.9845 15.0435 17.924 14.9382C17.8635 14.833 17.771 14.7497 17.66 14.7005ZM15.3939 10.8202C15.8208 10.9368 16.2099 11.1627 16.5227 11.4756C16.8356 11.7885 17.0615 12.1776 17.1781 12.6044C17.1936 12.6643 17.2285 12.7175 17.2773 12.7555C17.3261 12.7935 17.3861 12.8144 17.448 12.8147C17.4729 12.8147 17.4977 12.8111 17.5216 12.8042C17.5573 12.7949 17.5907 12.7785 17.62 12.7561C17.6492 12.7337 17.6737 12.7057 17.692 12.6737C17.7103 12.6417 17.722 12.6064 17.7264 12.5698C17.7309 12.5332 17.728 12.4961 17.7179 12.4607C17.5777 11.9379 17.3025 11.4613 16.9198 11.0786C16.5371 10.6959 16.0604 10.4206 15.5377 10.2804C15.5011 10.2671 15.4621 10.2615 15.4233 10.2641C15.3844 10.2666 15.3466 10.2772 15.312 10.2952C15.2775 10.3132 15.2471 10.3382 15.2228 10.3686C15.1985 10.399 15.1807 10.4341 15.1707 10.4717C15.1607 10.5094 15.1586 10.5487 15.1646 10.5871C15.1706 10.6256 15.1846 10.6624 15.2056 10.6952C15.2266 10.7279 15.2542 10.756 15.2866 10.7775C15.319 10.799 15.3556 10.8136 15.3939 10.8202ZM15.7335 12.2678C15.5595 12.0939 15.3433 11.9683 15.106 11.9033C15.0677 11.8967 15.0311 11.8821 14.9987 11.8606C14.9662 11.8391 14.9386 11.811 14.9176 11.7783C14.8966 11.7455 14.8827 11.7087 14.8767 11.6702C14.8707 11.6317 14.8727 11.5925 14.8828 11.5548C14.8928 11.5172 14.9105 11.4821 14.9349 11.4517C14.9592 11.4213 14.9896 11.3963 15.0241 11.3783C15.0586 11.3603 15.0965 11.3497 15.1354 11.3472C15.1742 11.3446 15.2132 11.3502 15.2497 11.3635C15.5829 11.452 15.8868 11.627 16.1305 11.8708C16.3743 12.1146 16.5493 12.4184 16.6378 12.7516C16.6478 12.7873 16.6506 12.8246 16.6459 12.8614C16.6412 12.8981 16.6292 12.9336 16.6106 12.9656C16.5919 12.9976 16.5671 13.0256 16.5374 13.0478C16.5078 13.0701 16.474 13.0862 16.438 13.0951C16.4154 13.1023 16.3917 13.1058 16.3679 13.1056C16.3059 13.1059 16.2455 13.0853 16.1966 13.0471C16.1476 13.009 16.1129 12.9555 16.098 12.8953C16.0331 12.658 15.9074 12.4418 15.7335 12.2678Z" fill="#4D0B6C"/>
</svg>
