<svg width="32" height="32" viewBox="0 0 32 32" fill="none" xmlns="http://www.w3.org/2000/svg">
<path d="M28.9999 16.0005C28.9959 19.1777 27.8301 22.2438 25.7223 24.6213C23.6145 26.9987 20.7101 28.5233 17.5562 28.908C17.486 28.9159 17.4149 28.9089 17.3475 28.8873C17.2802 28.8658 17.2182 28.8302 17.1657 28.783C17.1131 28.7357 17.0712 28.6779 17.0426 28.6132C17.014 28.5486 16.9995 28.4786 16.9999 28.408V19.0005H19.9999C20.137 19.0008 20.2727 18.9729 20.3986 18.9185C20.5244 18.8642 20.6378 18.7845 20.7315 18.6845C20.8253 18.5845 20.8975 18.4663 20.9437 18.3373C20.9899 18.2082 21.009 18.071 20.9999 17.9342C20.9779 17.6771 20.8592 17.4378 20.6679 17.2646C20.4766 17.0914 20.2268 16.997 19.9687 17.0005H16.9999V14.0005C16.9999 13.47 17.2107 12.9613 17.5857 12.5862C17.9608 12.2112 18.4695 12.0005 18.9999 12.0005H20.9999C21.137 12.0008 21.2727 11.9729 21.3986 11.9185C21.5244 11.8642 21.6378 11.7845 21.7315 11.6845C21.8253 11.5845 21.8975 11.4663 21.9437 11.3373C21.9899 11.2082 22.009 11.071 21.9999 10.9342C21.9778 10.6766 21.8588 10.437 21.667 10.2637C21.4751 10.0904 21.2247 9.99634 20.9662 10.0005H18.9999C17.9391 10.0005 16.9217 10.4219 16.1715 11.172C15.4214 11.9222 14.9999 12.9396 14.9999 14.0005V17.0005H11.9999C11.8629 17.0002 11.7272 17.028 11.6013 17.0824C11.4755 17.1367 11.3621 17.2164 11.2683 17.3164C11.1746 17.4164 11.1023 17.5346 11.0562 17.6636C11.01 17.7927 10.9909 17.9299 10.9999 18.0667C11.0221 18.3243 11.141 18.5639 11.3329 18.7372C11.5248 18.9105 11.7752 19.0046 12.0337 19.0005H14.9999V28.4105C15.0004 28.481 14.9859 28.5509 14.9574 28.6154C14.9289 28.68 14.887 28.7377 14.8346 28.785C14.7822 28.8322 14.7204 28.8678 14.6532 28.8894C14.5861 28.9111 14.5151 28.9182 14.4449 28.9105C11.2066 28.5161 8.2344 26.9203 6.11654 24.439C3.99867 21.9577 2.88955 18.7718 3.00869 15.5117C3.25869 8.76171 8.72619 3.27421 15.4812 3.01171C17.2301 2.94396 18.9746 3.22965 20.6105 3.85166C22.2464 4.47368 23.7401 5.41925 25.0021 6.63183C26.2642 7.8444 27.2687 9.29906 27.9556 10.9088C28.6425 12.5185 28.9977 14.2503 28.9999 16.0005Z" fill="#898989"/>
</svg>
