<svg width="22" height="22" viewBox="0 0 22 22" fill="none" xmlns="http://www.w3.org/2000/svg">
<path d="M15.1242 11C15.1264 13.6877 14.6038 16.35 13.5859 18.8375" stroke="#4D0B6C" stroke-width="2" stroke-linecap="round" stroke-linejoin="round"/>
<path d="M14.0766 8.25025C13.5198 7.62684 12.7867 7.18729 11.9745 6.98982C11.1623 6.79235 10.3093 6.84627 9.52846 7.14445C8.7476 7.44263 8.07575 7.971 7.6019 8.65956C7.12804 9.34813 6.87455 10.1644 6.875 11.0003C6.88011 13.0963 6.34752 15.1586 5.32812 16.9901" stroke="#4D0B6C" stroke-width="2" stroke-linecap="round" stroke-linejoin="round"/>
<path d="M8.25 3.22268C9.13249 2.90749 10.0629 2.74757 11 2.75003C13.188 2.75003 15.2865 3.61922 16.8336 5.1664C18.3808 6.71357 19.25 8.81199 19.25 11C19.2491 12.8502 19.0445 14.6946 18.6398 16.5" stroke="#4D0B6C" stroke-width="2" stroke-linecap="round" stroke-linejoin="round"/>
<path d="M2.00391 14.4375C2.49866 13.3592 2.75374 12.1864 2.75156 11C2.75059 9.83978 2.99512 8.69248 3.46908 7.63347C3.94304 6.57447 4.6357 5.62774 5.50156 4.85547" stroke="#4D0B6C" stroke-width="2" stroke-linecap="round" stroke-linejoin="round"/>
<path d="M9.50469 17.875C9.33281 18.2531 9.14375 18.6313 8.9375 18.9922" stroke="#4D0B6C" stroke-width="2" stroke-linecap="round" stroke-linejoin="round"/>
<path d="M11.0008 11C11.0029 12.3917 10.8268 13.778 10.4766 15.125" stroke="#4D0B6C" stroke-width="2" stroke-linecap="round" stroke-linejoin="round"/>
</svg>
