<svg width="23" height="23" viewBox="0 0 23 23" fill="none" xmlns="http://www.w3.org/2000/svg">
<path d="M5.37509 13.2958L4.6091 16.1538L1.80909 16.2128C0.962372 14.6359 0.512503 12.8766 0.49839 11.0868C0.484276 9.29706 0.906345 7.53081 1.72809 5.9408L4.22009 6.3978L5.3131 8.87379C4.8222 10.31 4.84411 11.8719 5.37509 13.2938V13.2958Z" fill="#FBBB00"/>
<path d="M22.3072 8.9458C22.6801 10.9071 22.5122 12.933 21.8214 14.8061C21.1307 16.6793 19.9432 18.3291 18.3862 19.5788L15.2472 19.4188L14.8032 16.6458C16.0994 15.886 17.0953 14.7041 17.6242 13.2978H11.7422V8.9458H22.3082H22.3072Z" fill="#518EF8"/>
<path d="M18.3846 19.5789C17.126 20.5898 15.6604 21.3114 14.0917 21.6923C12.523 22.0732 10.8896 22.1042 9.30759 21.7831C7.72555 21.4619 6.2336 20.7965 4.9376 19.834C3.6416 18.8715 2.57333 17.6356 1.80859 16.2139L5.3736 13.2959C5.70826 14.1881 6.23379 14.9964 6.91342 15.6643C7.59305 16.3322 8.41038 16.8435 9.30825 17.1626C10.2061 17.4816 11.1629 17.6007 12.1115 17.5115C13.0602 17.4222 13.978 17.1268 14.8006 16.6459L18.3846 19.5789Z" fill="#28B446"/>
<path d="M18.5205 2.53286L14.9575 5.45086C14.1227 4.93085 13.1814 4.60578 12.2036 4.49983C11.2258 4.39389 10.2368 4.5098 9.30997 4.83894C8.38318 5.16809 7.54255 5.70198 6.85062 6.40091C6.15869 7.09984 5.63327 7.94581 5.31347 8.87586L1.73047 5.94186C2.48616 4.48251 3.55923 3.21102 4.87084 2.22085C6.18244 1.23067 7.69924 0.546956 9.30978 0.219956C10.9203 -0.107044 12.5837 -0.0690224 14.1776 0.331227C15.7715 0.731476 17.2555 1.48378 18.5205 2.53286Z" fill="#F14336"/>
</svg>
