<svg width="28" height="28" viewBox="0 0 28 28" fill="none" xmlns="http://www.w3.org/2000/svg">
<path d="M16.625 22.7496V17.4996C16.625 17.2676 16.5328 17.045 16.3687 16.8809C16.2046 16.7168 15.9821 16.6246 15.75 16.6246H12.25C12.0179 16.6246 11.7954 16.7168 11.6313 16.8809C11.4672 17.045 11.375 17.2676 11.375 17.4996V22.7496C11.375 22.9817 11.2828 23.2043 11.1187 23.3683C10.9546 23.5324 10.7321 23.6246 10.5 23.6246H5.25C5.01794 23.6246 4.79538 23.5324 4.63128 23.3683C4.46719 23.2043 4.375 22.9817 4.375 22.7496V12.6324C4.37696 12.5113 4.40313 12.3919 4.45197 12.281C4.50081 12.1702 4.57133 12.0703 4.65937 11.9871L13.4094 4.03556C13.5707 3.88799 13.7814 3.80615 14 3.80615C14.2186 3.80615 14.4293 3.88799 14.5906 4.03556L23.3406 11.9871C23.4287 12.0703 23.4992 12.1702 23.548 12.281C23.5969 12.3919 23.623 12.5113 23.625 12.6324V22.7496C23.625 22.9817 23.5328 23.2043 23.3687 23.3683C23.2046 23.5324 22.9821 23.6246 22.75 23.6246H17.5C17.2679 23.6246 17.0454 23.5324 16.8813 23.3683C16.7172 23.2043 16.625 22.9817 16.625 22.7496Z" stroke="#898989" stroke-width="2" stroke-linecap="round" stroke-linejoin="round"/>
</svg>
