<svg width="28" height="28" viewBox="0 0 28 28" fill="none" xmlns="http://www.w3.org/2000/svg">
<path d="M23.9315 11.3421L15.1815 3.39058C14.8589 3.09544 14.4375 2.93176 14.0002 2.93176C13.563 2.93176 13.1416 3.09544 12.819 3.39058L4.06898 11.3421C3.88983 11.506 3.74675 11.7054 3.64883 11.9276C3.55092 12.1498 3.50031 12.39 3.50023 12.6328V22.7062C3.49312 23.1474 3.64888 23.5758 3.93773 23.9093C4.10167 24.0958 4.30363 24.2449 4.53002 24.3468C4.7564 24.4487 5.00198 24.5009 5.25023 24.5H10.5002C10.7323 24.5 10.9549 24.4078 11.119 24.2437C11.283 24.0796 11.3752 23.857 11.3752 23.625V18.375C11.3752 18.1429 11.4674 17.9203 11.6315 17.7562C11.7956 17.5921 12.0182 17.5 12.2502 17.5H15.7502C15.9823 17.5 16.2049 17.5921 16.369 17.7562C16.533 17.9203 16.6252 18.1429 16.6252 18.375V23.625C16.6252 23.857 16.7174 24.0796 16.8815 24.2437C17.0456 24.4078 17.2682 24.5 17.5002 24.5H22.7502C23.0405 24.5025 23.3266 24.431 23.5815 24.2921C23.8589 24.1411 24.0905 23.9182 24.2521 23.6469C24.4138 23.3756 24.4995 23.0658 24.5002 22.75V12.6328C24.5002 12.39 24.4496 12.1498 24.3516 11.9276C24.2537 11.7054 24.1106 11.506 23.9315 11.3421Z" fill="#4D0B6C"/>
</svg>
