<svg width="32" height="32" viewBox="0 0 32 32" fill="none" xmlns="http://www.w3.org/2000/svg">
<path d="M19 14H24" stroke="#4D0B6C" stroke-width="2" stroke-linecap="round" stroke-linejoin="round"/>
<path d="M19 18H24" stroke="#4D0B6C" stroke-width="2" stroke-linecap="round" stroke-linejoin="round"/>
<path d="M11.5117 18C13.1686 18 14.5117 16.6569 14.5117 15C14.5117 13.3431 13.1686 12 11.5117 12C9.85486 12 8.51172 13.3431 8.51172 15C8.51172 16.6569 9.85486 18 11.5117 18Z" stroke="#4D0B6C" stroke-width="2" stroke-linecap="round" stroke-linejoin="round"/>
<path d="M7.63672 21C7.85702 20.1396 8.35742 19.377 9.05903 18.8324C9.76064 18.2878 10.6235 17.9922 11.5117 17.9922C12.3999 17.9922 13.2628 18.2878 13.9644 18.8324C14.666 19.377 15.1664 20.1396 15.3867 21" stroke="#4D0B6C" stroke-width="2" stroke-linecap="round" stroke-linejoin="round"/>
<path d="M27 6H5C4.44772 6 4 6.44772 4 7V25C4 25.5523 4.44772 26 5 26H27C27.5523 26 28 25.5523 28 25V7C28 6.44772 27.5523 6 27 6Z" stroke="#4D0B6C" stroke-width="2" stroke-linecap="round" stroke-linejoin="round"/>
</svg>
