<svg width="24" height="24" viewBox="0 0 24 24" fill="none" xmlns="http://www.w3.org/2000/svg">
<path d="M12 2.25C10.0716 2.25 8.18657 2.82183 6.58319 3.89317C4.97982 4.96451 3.73013 6.48726 2.99218 8.26884C2.25422 10.0504 2.06114 12.0108 2.43735 13.9021C2.81355 15.7934 3.74215 17.5307 5.10571 18.8943C6.46928 20.2579 8.20656 21.1865 10.0979 21.5627C11.9892 21.9389 13.9496 21.7458 15.7312 21.0078C17.5127 20.2699 19.0355 19.0202 20.1068 17.4168C21.1782 15.8134 21.75 13.9284 21.75 12C21.7473 9.41498 20.7192 6.93661 18.8913 5.10872C17.0634 3.28084 14.585 2.25273 12 2.25ZM12 20.25C10.3683 20.25 8.77326 19.7661 7.41655 18.8596C6.05984 17.9531 5.00242 16.6646 4.378 15.1571C3.75358 13.6496 3.5902 11.9908 3.90853 10.3905C4.22685 8.79016 5.01259 7.32015 6.16637 6.16637C7.32016 5.01259 8.79017 4.22685 10.3905 3.90852C11.9909 3.59019 13.6497 3.75357 15.1571 4.37799C16.6646 5.00242 17.9531 6.05984 18.8596 7.41655C19.7661 8.77325 20.25 10.3683 20.25 12C20.2475 14.1873 19.3775 16.2843 17.8309 17.8309C16.2843 19.3775 14.1873 20.2475 12 20.25ZM12 6.75C11.2584 6.75016 10.5336 6.97018 9.91704 7.38224C9.3005 7.79431 8.81997 8.37992 8.53621 9.06505C8.25245 9.75017 8.17819 10.504 8.32282 11.2314C8.46744 11.9587 8.82447 12.6268 9.34875 13.1512L8.33063 15.7087C8.26268 15.8794 8.23753 16.064 8.25738 16.2466C8.27722 16.4291 8.34145 16.6041 8.44447 16.7561C8.54748 16.9081 8.68614 17.0326 8.84835 17.1187C9.01055 17.2048 9.19137 17.2499 9.375 17.25H14.625C14.8086 17.2499 14.9895 17.2048 15.1517 17.1187C15.3139 17.0326 15.4525 16.9081 15.5555 16.7561C15.6586 16.6041 15.7228 16.4291 15.7426 16.2466C15.7625 16.064 15.7373 15.8794 15.6694 15.7087L14.6513 13.1512C15.1755 12.6268 15.5326 11.9587 15.6772 11.2314C15.8218 10.504 15.7476 9.75017 15.4638 9.06505C15.18 8.37992 14.6995 7.79431 14.083 7.38224C13.4664 6.97018 12.7416 6.75016 12 6.75ZM13.0603 13.2094L14.0719 15.75H9.92813L10.9397 13.2094C11.0015 13.0543 11.0097 12.8831 10.9632 12.7228C10.9167 12.5625 10.818 12.4223 10.6828 12.3244C10.2971 12.0459 10.0097 11.6523 9.86166 11.2002C9.71366 10.7481 9.71277 10.2607 9.85911 9.80807C10.0055 9.35542 10.2915 8.96081 10.6762 8.68091C11.0608 8.40101 11.5243 8.25023 12 8.25023C12.4757 8.25023 12.9392 8.40101 13.3239 8.68091C13.7085 8.96081 13.9946 9.35542 14.1409 9.80807C14.2872 10.2607 14.2863 10.7481 14.1384 11.2002C13.9904 11.6523 13.7029 12.0459 13.3172 12.3244C13.182 12.4223 13.0833 12.5625 13.0368 12.7228C12.9903 12.8831 12.9985 13.0543 13.0603 13.2094Z" fill="#1E1E1E"/>
</svg>
