<svg width="32" height="32" viewBox="0 0 32 32" fill="none" xmlns="http://www.w3.org/2000/svg">
<path d="M26 10H21.5V6.5C21.5 5.04131 20.9205 3.64236 19.8891 2.61091C18.8576 1.57946 17.4587 1 16 1C14.5413 1 13.1424 1.57946 12.1109 2.61091C11.0795 3.64236 10.5 5.04131 10.5 6.5V10H6C5.46957 10 4.96086 10.2107 4.58579 10.5858C4.21071 10.9609 4 11.4696 4 12V26C4 26.5304 4.21071 27.0391 4.58579 27.4142C4.96086 27.7893 5.46957 28 6 28H26C26.5304 28 27.0391 27.7893 27.4142 27.4142C27.7893 27.0391 28 26.5304 28 26V12C28 11.4696 27.7893 10.9609 27.4142 10.5858C27.0391 10.2107 26.5304 10 26 10ZM16 20.5C15.7033 20.5 15.4133 20.412 15.1666 20.2472C14.92 20.0824 14.7277 19.8481 14.6142 19.574C14.5006 19.2999 14.4709 18.9983 14.5288 18.7074C14.5867 18.4164 14.7296 18.1491 14.9393 17.9393C15.1491 17.7296 15.4164 17.5867 15.7074 17.5288C15.9983 17.4709 16.2999 17.5007 16.574 17.6142C16.8481 17.7277 17.0824 17.92 17.2472 18.1666C17.412 18.4133 17.5 18.7033 17.5 19C17.5 19.3978 17.342 19.7794 17.0607 20.0607C16.7794 20.342 16.3978 20.5 16 20.5ZM19.5 10H12.5V6.5C12.5 5.57174 12.8687 4.6815 13.5251 4.02513C14.1815 3.36875 15.0717 3 16 3C16.9283 3 17.8185 3.36875 18.4749 4.02513C19.1313 4.6815 19.5 5.57174 19.5 6.5V10Z" fill="#4D0B6C"/>
</svg>
