<svg width="38" height="12" viewBox="0 0 38 12" fill="none" xmlns="http://www.w3.org/2000/svg">
<g clip-path="url(#clip0_7_9917)">
<path d="M19.4108 3.71649C19.3899 5.33593 20.8767 6.23959 21.9966 6.77692C23.1473 7.32817 23.5338 7.6817 23.5292 8.17473C23.5207 8.92918 22.6114 9.26218 21.7605 9.27512C20.2761 9.29776 19.4129 8.88053 18.7267 8.56496L18.192 11.0286C18.8804 11.3409 20.1552 11.6133 21.4771 11.6252C24.5802 11.6252 26.6103 10.1172 26.6213 7.77901C26.6334 4.81154 22.4523 4.64729 22.4808 3.32092C22.4907 2.91873 22.8805 2.48954 23.7346 2.38042C24.1574 2.32529 25.3245 2.2831 26.6477 2.88301L27.1671 0.499417C26.4555 0.244324 25.5409 5.81741e-05 24.4022 5.81741e-05C21.4816 5.81741e-05 19.4273 1.52865 19.4108 3.71649ZM32.1574 0.20537C31.5908 0.20537 31.1133 0.530776 30.9002 1.03014L26.4676 11.4502H29.5684L30.1854 9.77124H33.9745L34.3325 11.4502H37.0655L34.6806 0.20537H32.1574ZM32.5912 3.24301L33.486 7.46556H31.0353L32.5912 3.24301ZM15.6512 0.205511L13.2071 11.45H16.1619L18.6049 0.20523H15.6512M11.2801 0.20523L8.2046 7.85903L6.96052 1.35132C6.81454 0.624855 6.23806 0.20537 5.59788 0.20537H0.570417L0.5 0.531901C1.53212 0.752401 2.70478 1.10804 3.41524 1.48857C3.85002 1.72103 3.974 1.92423 4.11684 2.4766L6.47317 11.4502H9.59566L14.3829 0.20537H11.2801" fill="url(#paint0_linear_7_9917)"/>
</g>
<defs>
<linearGradient id="paint0_linear_7_9917" x1="17.3106" y1="11.8584" x2="17.6419" y2="-0.0810817" gradientUnits="userSpaceOnUse">
<stop stop-color="#222357"/>
<stop offset="1" stop-color="#254AA5"/>
</linearGradient>
<clipPath id="clip0_7_9917">
<rect width="36.5655" height="11.6719" fill="white" transform="translate(0.5)"/>
</clipPath>
</defs>
</svg>
