<svg width="33" height="25" viewBox="0 0 33 25" fill="none" xmlns="http://www.w3.org/2000/svg">
<g clip-path="url(#clip0_7_9912)">
<path d="M6.08866 24.7515V23.1051C6.08866 22.4738 5.69838 22.0623 5.02941 22.0623C4.69499 22.0623 4.33263 22.1721 4.08175 22.5288C3.88674 22.227 3.60805 22.0623 3.18996 22.0623C2.91115 22.0623 2.63259 22.1446 2.40952 22.4465V22.1172H1.82422V24.7515H2.40952V23.2971C2.40952 22.8307 2.6604 22.6111 3.05068 22.6111C3.44072 22.6111 3.63599 22.8581 3.63599 23.2971V24.7515H4.22129V23.2971C4.22129 22.8307 4.49984 22.6111 4.8622 22.6111C5.25248 22.6111 5.4475 22.8581 5.4475 23.2971V24.7515H6.08866ZM14.7566 22.1172H13.8091V21.3215H13.2238V22.1172H12.6942V22.6385H13.2236V23.846C13.2236 24.4497 13.4745 24.8063 14.1435 24.8063C14.3944 24.8063 14.6729 24.7241 14.8682 24.6143L14.7008 24.1203C14.5336 24.2301 14.3386 24.2576 14.1992 24.2576C13.9205 24.2576 13.8091 24.093 13.8091 23.8185V22.6385H14.7566V22.1172ZM19.7178 22.0622C19.3834 22.0622 19.1604 22.227 19.021 22.4465V22.1172H18.4357V24.7515H19.021V23.2697C19.021 22.8307 19.216 22.5837 19.5784 22.5837C19.6899 22.5837 19.8293 22.6112 19.9407 22.6386L20.108 22.0898C19.9965 22.0623 19.8293 22.0623 19.7178 22.0623V22.0622ZM12.2204 22.3367C11.9415 22.1446 11.5514 22.0623 11.1333 22.0623C10.4645 22.0623 10.0186 22.3916 10.0186 22.913C10.0186 23.3521 10.353 23.599 10.9383 23.6813L11.217 23.7088C11.5236 23.7636 11.6908 23.846 11.6908 23.9832C11.6908 24.1752 11.4678 24.3125 11.0776 24.3125C10.6874 24.3125 10.3808 24.1752 10.1856 24.0381L9.90696 24.4771C10.2136 24.6966 10.6317 24.8063 11.0496 24.8063C11.8301 24.8063 12.2761 24.4497 12.2761 23.9557C12.2761 23.4892 11.9137 23.2422 11.3562 23.16L11.0776 23.1325C10.8267 23.105 10.6317 23.0502 10.6317 22.8856C10.6317 22.6935 10.8267 22.5837 11.1333 22.5837C11.4678 22.5837 11.8023 22.7208 11.9695 22.8032L12.2204 22.3367ZM27.7727 22.0623C27.4382 22.0623 27.2152 22.227 27.0758 22.4465V22.1172H26.4905V24.7515H27.0758V23.2697C27.0758 22.8307 27.271 22.5837 27.6332 22.5837C27.7448 22.5837 27.8842 22.6112 27.9957 22.6386L28.1629 22.0898C28.0514 22.0623 27.8842 22.0623 27.7727 22.0623ZM20.3031 23.4343C20.3031 24.2301 20.8605 24.8063 21.7246 24.8063C22.1147 24.8063 22.3934 24.7241 22.6721 24.5046L22.3934 24.0381C22.1705 24.2027 21.9475 24.285 21.6967 24.285C21.2228 24.285 20.8884 23.9557 20.8884 23.4343C20.8884 22.9405 21.2228 22.6111 21.6967 22.5837C21.9475 22.5837 22.1705 22.666 22.3934 22.8307L22.6721 22.3642C22.3934 22.1446 22.1147 22.0623 21.7246 22.0623C20.8605 22.0623 20.3031 22.6386 20.3031 23.4343ZM25.7102 23.4343V22.1172H25.1249V22.4465C24.9298 22.1996 24.6511 22.0623 24.2887 22.0623C23.5362 22.0623 22.9509 22.6386 22.9509 23.4343C22.9509 24.2301 23.5362 24.8063 24.2887 24.8063C24.6789 24.8063 24.9577 24.6692 25.1249 24.4222V24.7515H25.7102V23.4343ZM23.564 23.4343C23.564 22.9678 23.8706 22.5837 24.3723 22.5837C24.8461 22.5837 25.1807 22.9405 25.1807 23.4343C25.1807 23.9008 24.8461 24.285 24.3723 24.285C23.8706 24.2575 23.564 23.9008 23.564 23.4343ZM16.5683 22.0623C15.7879 22.0623 15.2304 22.6111 15.2304 23.4343C15.2304 24.2576 15.7878 24.8063 16.5962 24.8063C16.9863 24.8063 17.3766 24.6966 17.6832 24.4497L17.4044 24.0381C17.1815 24.2027 16.9028 24.3125 16.6241 24.3125C16.2617 24.3125 15.8994 24.1478 15.8157 23.6812H17.7947V23.4618C17.8226 22.6111 17.3209 22.0623 16.5682 22.0623H16.5683ZM16.5683 22.5562C16.9306 22.5562 17.1816 22.7758 17.2372 23.1875H15.8436C15.8994 22.8307 16.1503 22.5562 16.5683 22.5562ZM31.0894 23.4343V21.0745H30.5041V22.4465C30.309 22.1996 30.0303 22.0623 29.6679 22.0623C28.9154 22.0623 28.3301 22.6386 28.3301 23.4343C28.3301 24.2301 28.9154 24.8063 29.6679 24.8063C30.0582 24.8063 30.3369 24.6692 30.5041 24.4222V24.7515H31.0894V23.4343ZM28.9433 23.4343C28.9433 22.9678 29.2498 22.5837 29.7516 22.5837C30.2254 22.5837 30.5598 22.9405 30.5598 23.4343C30.5598 23.9008 30.2254 24.285 29.7516 24.285C29.2498 24.2575 28.9433 23.9008 28.9433 23.4343ZM9.3774 23.4343V22.1172H8.7921V22.4465C8.59695 22.1996 8.31827 22.0623 7.95591 22.0623C7.2034 22.0623 6.6181 22.6386 6.6181 23.4343C6.6181 24.2301 7.2034 24.8063 7.95591 24.8063C8.3462 24.8063 8.62488 24.6692 8.7921 24.4222V24.7515H9.3774V23.4343ZM7.2034 23.4343C7.2034 22.9678 7.51002 22.5837 8.01165 22.5837C8.48548 22.5837 8.82003 22.9405 8.82003 23.4343C8.82003 23.9008 8.48548 24.285 8.01165 24.285C7.51002 24.2575 7.2034 23.9008 7.2034 23.4343Z" fill="black"/>
<path d="M12.0234 2.11279H20.803V17.6442H12.0234V2.11279Z" fill="#FF5F00"/>
<path d="M12.5826 9.87862C12.5826 6.723 14.0876 3.924 16.4009 2.11287C14.7009 0.79575 12.5548 0 10.2136 0C4.66695 0 0.179688 4.41787 0.179688 9.87862C0.179688 15.3393 4.66695 19.7572 10.2135 19.7572C12.5547 19.7572 14.7007 18.9615 16.4009 17.6443C14.0876 15.8606 12.5826 13.0343 12.5826 9.87862Z" fill="#EB001B"/>
<path d="M32.6509 9.87862C32.6509 15.3393 28.1636 19.7572 22.6171 19.7572C20.2759 19.7572 18.1299 18.9615 16.4297 17.6443C18.7709 15.8333 20.2481 13.0343 20.2481 9.87862C20.2481 6.723 18.743 3.924 16.4297 2.11287C18.1297 0.79575 20.2759 0 22.6171 0C28.1636 0 32.651 4.44537 32.651 9.87862H32.6509Z" fill="#F79E1B"/>
</g>
<defs>
<clipPath id="clip0_7_9912">
<rect width="32.5026" height="24.875" fill="white" transform="translate(0.179688)"/>
</clipPath>
</defs>
</svg>
