<svg width="33" height="32" viewBox="0 0 33 32" fill="none" xmlns="http://www.w3.org/2000/svg">
<path d="M28.963 6.03751L22.413 29.275C22.3038 29.6685 22.076 30.0188 21.7607 30.2782C21.4453 30.5377 21.0577 30.6937 20.6505 30.725H20.4755C20.0988 30.7242 19.73 30.6169 19.4116 30.4157C19.0931 30.2145 18.838 29.9274 18.6755 29.5875L14.213 20.1625C14.1692 20.0679 14.1553 19.9621 14.1732 19.8594C14.1911 19.7566 14.2398 19.6618 14.313 19.5875L20.7255 13.175C20.8259 13.084 20.9068 12.9736 20.9632 12.8505C21.0196 12.7273 21.0504 12.594 21.0538 12.4586C21.0571 12.3231 21.0329 12.1885 20.9826 12.0627C20.9323 11.9369 20.857 11.8226 20.7612 11.7269C20.6654 11.6311 20.5511 11.5557 20.4254 11.5054C20.2996 11.4551 20.1649 11.4309 20.0295 11.4343C19.894 11.4376 19.7607 11.4684 19.6376 11.5248C19.5144 11.5813 19.404 11.6621 19.313 11.7625L12.9005 18.1875C12.8262 18.2607 12.7314 18.3095 12.6287 18.3273C12.5259 18.3452 12.4202 18.3313 12.3255 18.2875L2.95053 13.85C2.5836 13.6767 2.27554 13.3996 2.06448 13.053C1.85341 12.7064 1.74861 12.3055 1.76303 11.9C1.78516 11.4825 1.93841 11.0825 2.20099 10.7571C2.46356 10.4317 2.82208 10.1974 3.22553 10.0875L26.513 3.52501C26.9203 3.40869 27.3541 3.42469 27.7517 3.57071C28.1493 3.71673 28.4903 3.98523 28.7255 4.33751C28.8834 4.58784 28.9862 4.86888 29.0271 5.16197C29.068 5.45505 29.0462 5.7535 28.963 6.03751Z" fill="#FFD600"/>
</svg>
