<svg width="26" height="26" viewBox="0 0 26 26" fill="none" xmlns="http://www.w3.org/2000/svg">
<path d="M23.0872 7.45188L18.5484 2.91407C18.3975 2.76314 18.2183 2.64341 18.0211 2.56172C17.824 2.48003 17.6126 2.43799 17.3992 2.43799C17.1858 2.43799 16.9744 2.48003 16.7772 2.56172C16.5801 2.64341 16.4009 2.76314 16.25 2.91407L3.72634 15.4377C3.57478 15.5881 3.45463 15.7671 3.37286 15.9643C3.29108 16.1615 3.24933 16.3729 3.25001 16.5864V21.1252C3.25001 21.5562 3.42121 21.9695 3.72596 22.2743C4.03071 22.579 4.44403 22.7502 4.87501 22.7502H21.9375C22.153 22.7502 22.3597 22.6646 22.512 22.5123C22.6644 22.3599 22.75 22.1532 22.75 21.9377C22.75 21.7223 22.6644 21.5156 22.512 21.3632C22.3597 21.2108 22.153 21.1252 21.9375 21.1252H11.7122L23.0872 9.75024C23.2381 9.59934 23.3579 9.42019 23.4395 9.22301C23.5212 9.02583 23.5633 8.81449 23.5633 8.60106C23.5633 8.38763 23.5212 8.17629 23.4395 7.97912C23.3579 7.78194 23.2381 7.60278 23.0872 7.45188ZM19.5 11.0391L14.9622 6.50024L17.3997 4.06274L21.9375 8.60157L19.5 11.0391Z" fill="#FAF7FB"/>
</svg>
