<svg width="33" height="32" viewBox="0 0 33 32" fill="none" xmlns="http://www.w3.org/2000/svg">
<path d="M16.5 3C13.9288 3 11.4154 3.76244 9.27759 5.1909C7.13975 6.61935 5.47351 8.64968 4.48957 11.0251C3.50563 13.4006 3.24819 16.0144 3.7498 18.5362C4.25141 21.0579 5.48953 23.3743 7.30762 25.1924C9.1257 27.0105 11.4421 28.2486 13.9638 28.7502C16.4856 29.2518 19.0995 28.9944 21.4749 28.0104C23.8503 27.0265 25.8807 25.3603 27.3091 23.2224C28.7376 21.0846 29.5 18.5712 29.5 16C29.4934 12.5542 28.1216 9.25145 25.6851 6.81491C23.2486 4.37837 19.9458 3.00661 16.5 3ZM21.5 17H17.5V21C17.5 21.2652 17.3946 21.5196 17.2071 21.7071C17.0196 21.8946 16.7652 22 16.5 22C16.2348 22 15.9804 21.8946 15.7929 21.7071C15.6054 21.5196 15.5 21.2652 15.5 21V17H11.5C11.2348 17 10.9804 16.8946 10.7929 16.7071C10.6054 16.5196 10.5 16.2652 10.5 16C10.5 15.7348 10.6054 15.4804 10.7929 15.2929C10.9804 15.1054 11.2348 15 11.5 15H15.5V11C15.5 10.7348 15.6054 10.4804 15.7929 10.2929C15.9804 10.1054 16.2348 10 16.5 10C16.7652 10 17.0196 10.1054 17.2071 10.2929C17.3946 10.4804 17.5 10.7348 17.5 11V15H21.5C21.7652 15 22.0196 15.1054 22.2071 15.2929C22.3946 15.4804 22.5 15.7348 22.5 16C22.5 16.2652 22.3946 16.5196 22.2071 16.7071C22.0196 16.8946 21.7652 17 21.5 17Z" fill="#50BD68"/>
</svg>
