<svg width="28" height="28" viewBox="0 0 28 28" fill="none" xmlns="http://www.w3.org/2000/svg">
<path d="M23.625 4.375H4.37502C3.91089 4.375 3.46577 4.55937 3.13758 4.88756C2.80939 5.21575 2.62502 5.66087 2.62502 6.125V22.75C2.62412 22.8993 2.66194 23.0463 2.73478 23.1767C2.80763 23.307 2.913 23.4163 3.04064 23.4938C3.16725 23.5733 3.31215 23.6192 3.4615 23.6268C3.61085 23.6345 3.75968 23.6037 3.89376 23.5375L7.00001 21.9734L10.1063 23.5375C10.2291 23.5966 10.3637 23.6273 10.5 23.6273C10.6363 23.6273 10.7709 23.5966 10.8938 23.5375L14 21.9734L17.1063 23.5375C17.2295 23.5951 17.3639 23.625 17.5 23.625C17.6361 23.625 17.7705 23.5951 17.8938 23.5375L21 21.9734L24.1063 23.5375C24.2404 23.6037 24.3892 23.6345 24.5385 23.6268C24.6879 23.6192 24.8328 23.5733 24.9594 23.4938C25.087 23.4163 25.1924 23.307 25.2652 23.1767C25.3381 23.0463 25.3759 22.8993 25.375 22.75V6.125C25.375 5.66087 25.1906 5.21575 24.8624 4.88756C24.5343 4.55937 24.0891 4.375 23.625 4.375ZM19.6875 15.75H8.31251C8.08045 15.75 7.85789 15.6578 7.6938 15.4937C7.5297 15.3296 7.43751 15.1071 7.43751 14.875C7.43751 14.6429 7.5297 14.4204 7.6938 14.2563C7.85789 14.0922 8.08045 14 8.31251 14H19.6875C19.9196 14 20.1421 14.0922 20.3062 14.2563C20.4703 14.4204 20.5625 14.6429 20.5625 14.875C20.5625 15.1071 20.4703 15.3296 20.3062 15.4937C20.1421 15.6578 19.9196 15.75 19.6875 15.75ZM19.6875 12.25H8.31251C8.08045 12.25 7.85789 12.1578 7.6938 11.9937C7.5297 11.8296 7.43751 11.6071 7.43751 11.375C7.43751 11.1429 7.5297 10.9204 7.6938 10.7563C7.85789 10.5922 8.08045 10.5 8.31251 10.5H19.6875C19.9196 10.5 20.1421 10.5922 20.3062 10.7563C20.4703 10.9204 20.5625 11.1429 20.5625 11.375C20.5625 11.6071 20.4703 11.8296 20.3062 11.9937C20.1421 12.1578 19.9196 12.25 19.6875 12.25Z" fill="#4D0B6C"/>
</svg>
