<svg width="25" height="25" viewBox="0 0 25 25" fill="none" xmlns="http://www.w3.org/2000/svg">
<path d="M21.4302 8.00001H22.625C23.2217 8.00001 23.794 8.23706 24.216 8.65902C24.6379 9.08098 24.875 9.65327 24.875 10.25V14.75C24.875 15.3467 24.6379 15.919 24.216 16.341C23.794 16.763 23.2217 17 22.625 17H21.4302C21.156 19.175 20.0974 21.1751 18.4532 22.625C16.809 24.0749 14.6922 24.875 12.5 24.875V22.625C14.2902 22.625 16.0071 21.9139 17.273 20.648C18.5388 19.3821 19.25 17.6652 19.25 15.875V9.12501C19.25 7.3348 18.5388 5.61791 17.273 4.35204C16.0071 3.08617 14.2902 2.37501 12.5 2.37501C10.7098 2.37501 8.9929 3.08617 7.72703 4.35204C6.46116 5.61791 5.75 7.3348 5.75 9.12501V17H2.375C1.77826 17 1.20597 16.763 0.78401 16.341C0.362053 15.919 0.125 15.3467 0.125 14.75V10.25C0.125 9.65327 0.362053 9.08098 0.78401 8.65902C1.20597 8.23706 1.77826 8.00001 2.375 8.00001H3.56975C3.84428 5.82527 4.90296 3.82544 6.54714 2.37577C8.19132 0.926099 10.308 0.126221 12.5 0.126221C14.692 0.126221 16.8087 0.926099 18.4529 2.37577C20.097 3.82544 21.1557 5.82527 21.4302 8.00001ZM2.375 10.25V14.75H3.5V10.25H2.375ZM21.5 10.25V14.75H22.625V10.25H21.5ZM7.73 16.7581L8.9225 14.8501C9.99471 15.5218 11.2348 15.8771 12.5 15.875C13.7652 15.8771 15.0053 15.5218 16.0775 14.8501L17.27 16.7581C15.8404 17.6538 14.187 18.1276 12.5 18.125C10.813 18.1276 9.15958 17.6538 7.73 16.7581Z" fill="#595959"/>
</svg>
