<svg width="33" height="32" viewBox="0 0 33 32" fill="none" xmlns="http://www.w3.org/2000/svg">
<path d="M3.5 16C3.5 23.1797 9.3203 29 16.5 29C23.6797 29 29.5 23.1797 29.5 16C29.5 8.8203 23.6797 3 16.5 3C9.3203 3 3.5 8.8203 3.5 16Z" fill="#229ED9"/>
<path d="M20.5 13H23.5V10" fill="#229ED9"/>
<path d="M20.5 13H23.5V10" stroke="white" stroke-width="2" stroke-linecap="round" stroke-linejoin="round"/>
<path d="M12.5 10.7283C13.0669 10.1804 13.7403 9.74576 14.4814 9.4492C15.2226 9.15264 16.0171 9 16.8194 9C17.6218 9 18.4163 9.15264 19.1575 9.4492C19.8986 9.74576 20.5719 10.1804 21.1389 10.7283L23.5 13" fill="#229ED9"/>
<path d="M12.5 10.7283C13.0669 10.1804 13.7403 9.74576 14.4814 9.4492C15.2226 9.15264 16.0171 9 16.8194 9C17.6218 9 18.4163 9.15264 19.1575 9.4492C19.8986 9.74576 20.5719 10.1804 21.1389 10.7283L23.5 13" stroke="white" stroke-width="2" stroke-linecap="round" stroke-linejoin="round"/>
<path d="M13.5 18H9.5V21" fill="#229ED9"/>
<path d="M13.5 18H9.5V21" stroke="white" stroke-width="2" stroke-linecap="round" stroke-linejoin="round"/>
<path d="M21.5 20.2717C20.8815 20.8196 20.147 21.2542 19.3384 21.5508C18.5299 21.8474 17.6632 22 16.7879 22C15.9126 22 15.0459 21.8474 14.2373 21.5508C13.4288 21.2542 12.6942 20.8196 12.0758 20.2717L9.5 18" fill="#229ED9"/>
<path d="M21.5 20.2717C20.8815 20.8196 20.147 21.2542 19.3384 21.5508C18.5299 21.8474 17.6632 22 16.7879 22C15.9126 22 15.0459 21.8474 14.2373 21.5508C13.4288 21.2542 12.6942 20.8196 12.0758 20.2717L9.5 18" stroke="white" stroke-width="2" stroke-linecap="round" stroke-linejoin="round"/>
</svg>
