<svg width="32" height="32" viewBox="0 0 32 32" fill="none" xmlns="http://www.w3.org/2000/svg">
<path d="M30.709 9.70709L26.9715 13.4446C26.2165 22.1971 18.8353 28.9996 10.0015 28.9996C8.18653 28.9996 6.69028 28.7121 5.55403 28.1446C4.63778 27.6858 4.26278 27.1946 4.16903 27.0546C4.08543 26.9292 4.03125 26.7866 4.01053 26.6373C3.9898 26.4881 4.00308 26.3361 4.04935 26.1927C4.09563 26.0493 4.17371 25.9182 4.27777 25.8092C4.38183 25.7002 4.50917 25.6162 4.65028 25.5633C4.68278 25.5508 7.68028 24.3996 9.58403 22.2083C8.52826 21.3403 7.60662 20.321 6.84903 19.1833C5.29903 16.8821 3.56403 12.8846 4.09903 6.91084C4.11598 6.72102 4.18683 6.54 4.30322 6.3891C4.41961 6.23819 4.57669 6.12369 4.75597 6.05907C4.93526 5.99445 5.12927 5.9824 5.31517 6.02435C5.50107 6.0663 5.67112 6.16049 5.80528 6.29584C5.84903 6.33959 9.96528 10.4333 14.9978 11.7608V10.9996C14.9959 10.2013 15.1537 9.41076 15.462 8.67443C15.7702 7.93809 16.2227 7.27089 16.7928 6.71209C17.3464 6.15925 18.0051 5.72289 18.7301 5.42877C19.4551 5.13465 20.2317 4.98872 21.014 4.99959C22.0635 5.00994 23.0924 5.29166 24.0007 5.81735C24.9091 6.34304 25.666 7.09481 26.1978 7.99959H30.0015C30.1994 7.99943 30.3929 8.058 30.5575 8.16787C30.7221 8.27774 30.8504 8.43398 30.9261 8.6168C31.0019 8.79962 31.0217 9.00081 30.9831 9.1949C30.9444 9.38898 30.849 9.56723 30.709 9.70709Z" fill="#898989"/>
</svg>
