<svg width="24" height="24" viewBox="0 0 24 24" fill="none" xmlns="http://www.w3.org/2000/svg">
<path d="M12 16.875C14.0711 16.875 15.75 15.1961 15.75 13.125C15.75 11.0539 14.0711 9.375 12 9.375C9.92893 9.375 8.25 11.0539 8.25 13.125C8.25 15.1961 9.92893 16.875 12 16.875Z" stroke="#1E1E1E" stroke-width="1.5" stroke-linecap="round" stroke-linejoin="round"/>
<path d="M18.375 10.875C19.2485 10.8735 20.1103 11.0762 20.8916 11.4669C21.6729 11.8575 22.3521 12.4253 22.875 13.125" stroke="#1E1E1E" stroke-width="1.5" stroke-linecap="round" stroke-linejoin="round"/>
<path d="M1.125 13.125C1.64794 12.4253 2.32714 11.8575 3.10843 11.4669C3.88972 11.0762 4.75149 10.8735 5.625 10.875" stroke="#1E1E1E" stroke-width="1.5" stroke-linecap="round" stroke-linejoin="round"/>
<path d="M6.60156 20.25C7.09546 19.2386 7.86351 18.3861 8.81823 17.7899C9.77295 17.1936 10.8759 16.8774 12.0016 16.8774C13.1272 16.8774 14.2302 17.1936 15.1849 17.7899C16.1396 18.3861 16.9077 19.2386 17.4016 20.25" stroke="#1E1E1E" stroke-width="1.5" stroke-linecap="round" stroke-linejoin="round"/>
<path d="M5.62414 10.875C5.05474 10.8756 4.49694 10.7141 4.0159 10.4094C3.53487 10.1048 3.15047 9.6695 2.90763 9.15449C2.66478 8.63947 2.57352 8.06598 2.6445 7.50102C2.71548 6.93607 2.94577 6.40298 3.30847 5.96404C3.67117 5.52511 4.15129 5.19845 4.69274 5.02225C5.23419 4.84605 5.81461 4.82758 6.36616 4.96899C6.91772 5.11041 7.41765 5.40587 7.80752 5.82085C8.1974 6.23583 8.46113 6.7532 8.56789 7.3125" stroke="#1E1E1E" stroke-width="1.5" stroke-linecap="round" stroke-linejoin="round"/>
<path d="M15.4297 7.3125C15.5364 6.7532 15.8002 6.23583 16.1901 5.82085C16.5799 5.40587 17.0799 5.11041 17.6314 4.96899C18.183 4.82758 18.7634 4.84605 19.3048 5.02225C19.8463 5.19845 20.3264 5.52511 20.6891 5.96404C21.0518 6.40298 21.2821 6.93607 21.3531 7.50102C21.4241 8.06598 21.3328 8.63947 21.09 9.15449C20.8471 9.6695 20.4627 10.1048 19.9817 10.4094C19.5006 10.7141 18.9428 10.8756 18.3734 10.875" stroke="#1E1E1E" stroke-width="1.5" stroke-linecap="round" stroke-linejoin="round"/>
</svg>
