<svg width="28" height="28" viewBox="0 0 28 28" fill="none" xmlns="http://www.w3.org/2000/svg">
<path d="M25.3663 23.1875C23.7336 20.375 21.1203 18.264 18.0272 17.2594C19.5098 16.3778 20.6619 15.0338 21.3066 13.4339C21.9512 11.8341 22.0528 10.0668 21.5956 8.40358C21.1385 6.74039 20.1479 5.27329 18.7761 4.22766C17.4043 3.18204 15.7271 2.61572 14.0022 2.61572C12.2774 2.61572 10.6002 3.18204 9.22838 4.22766C7.85657 5.27329 6.86601 6.74039 6.40886 8.40358C5.95171 10.0668 6.05326 11.8341 6.69792 13.4339C7.34258 15.0338 8.49468 16.3778 9.97724 17.2594C6.88422 18.264 4.27086 20.375 2.63818 23.1875C2.55802 23.3194 2.51562 23.4707 2.51562 23.625C2.51562 23.7793 2.55802 23.9307 2.63818 24.0625C2.71297 24.1966 2.82255 24.308 2.95538 24.385C3.0882 24.462 3.23934 24.5018 3.39287 24.5H24.6116C24.7651 24.5018 24.9163 24.462 25.0491 24.385C25.1819 24.308 25.2915 24.1966 25.3663 24.0625C25.4465 23.9307 25.4889 23.7793 25.4889 23.625C25.4889 23.4707 25.4465 23.3194 25.3663 23.1875Z" fill="#4D0B6C"/>
</svg>
