<svg width="28" height="28" viewBox="0 0 28 28" fill="none" xmlns="http://www.w3.org/2000/svg">
<path d="M27.0045 8.80466C26.9801 8.56984 26.9073 8.34264 26.7905 8.13743C26.6738 7.93222 26.5158 7.75347 26.3264 7.61248C19.0639 2.13279 8.93579 2.13279 1.68423 7.60154C1.49595 7.74603 1.33883 7.9271 1.22229 8.13385C1.10576 8.3406 1.03222 8.56878 1.0061 8.80466C0.98081 9.04455 1.00357 9.28706 1.07306 9.51805C1.14254 9.74903 1.25735 9.96386 1.41079 10.15L12.6764 23.4172C12.8397 23.6087 13.0426 23.7625 13.271 23.8679C13.4995 23.9734 13.7482 24.028 13.9999 24.028C14.2515 24.028 14.5002 23.9734 14.7287 23.8679C14.9571 23.7625 15.16 23.6087 15.3233 23.4172L26.5889 10.139C26.744 9.95575 26.8606 9.74321 26.932 9.514C27.0034 9.28479 27.0281 9.04358 27.0045 8.80466Z" fill="#4D0B6C"/>
</svg>
