<svg width="148" height="48" viewBox="0 0 148 48" fill="none" xmlns="http://www.w3.org/2000/svg">
<path d="M2.21591 39V35.3494L16.733 14.9801H2.1875V9.90909H24.4602V13.5597L9.92898 33.929H24.4886V39H2.21591ZM39.0376 39.4261C36.7933 39.4261 34.8615 38.9716 33.2422 38.0625C31.6323 37.1439 30.3918 35.8466 29.5206 34.1705C28.6494 32.4848 28.2138 30.4915 28.2138 28.1903C28.2138 25.946 28.6494 23.9763 29.5206 22.2812C30.3918 20.5862 31.6181 19.2652 33.1996 18.3182C34.7905 17.3712 36.656 16.8977 38.7962 16.8977C40.2356 16.8977 41.5755 17.1297 42.8161 17.5938C44.0661 18.0483 45.1551 18.7348 46.0831 19.6534C47.0206 20.572 47.7498 21.7273 48.2706 23.1193C48.7914 24.5019 49.0518 26.1212 49.0518 27.9773V29.6392H30.6286V25.8892H43.3558C43.3558 25.018 43.1664 24.2462 42.7876 23.5739C42.4089 22.9015 41.8833 22.3759 41.2109 21.9972C40.5481 21.6089 39.7763 21.4148 38.8956 21.4148C37.977 21.4148 37.1626 21.6278 36.4524 22.054C35.7517 22.4706 35.2024 23.0341 34.8047 23.7443C34.407 24.4451 34.2034 25.2263 34.1939 26.0881V29.6534C34.1939 30.733 34.3928 31.6657 34.7905 32.4517C35.1977 33.2377 35.7706 33.8438 36.5092 34.2699C37.2479 34.696 38.1238 34.9091 39.1371 34.9091C39.8094 34.9091 40.425 34.8144 40.9837 34.625C41.5424 34.4356 42.0206 34.1515 42.4183 33.7727C42.8161 33.3939 43.1191 32.9299 43.3274 32.3807L48.924 32.75C48.6399 34.0947 48.0575 35.2689 47.1768 36.2727C46.3056 37.267 45.1787 38.0436 43.7962 38.6023C42.4231 39.1515 40.8369 39.4261 39.0376 39.4261ZM62.9439 39.4261C60.6996 39.4261 58.7678 38.9716 57.1484 38.0625C55.5386 37.1439 54.2981 35.8466 53.4268 34.1705C52.5556 32.4848 52.12 30.4915 52.12 28.1903C52.12 25.946 52.5556 23.9763 53.4268 22.2812C54.2981 20.5862 55.5244 19.2652 57.1058 18.3182C58.6967 17.3712 60.5623 16.8977 62.7024 16.8977C64.1418 16.8977 65.4818 17.1297 66.7223 17.5938C67.9723 18.0483 69.0613 18.7348 69.9893 19.6534C70.9268 20.572 71.656 21.7273 72.1768 23.1193C72.6977 24.5019 72.9581 26.1212 72.9581 27.9773V29.6392H54.5348V25.8892H67.2621C67.2621 25.018 67.0727 24.2462 66.6939 23.5739C66.3151 22.9015 65.7895 22.3759 65.1172 21.9972C64.4543 21.6089 63.6825 21.4148 62.8018 21.4148C61.8833 21.4148 61.0689 21.6278 60.3587 22.054C59.6579 22.4706 59.1087 23.0341 58.7109 23.7443C58.3132 24.4451 58.1096 25.2263 58.1001 26.0881V29.6534C58.1001 30.733 58.299 31.6657 58.6967 32.4517C59.1039 33.2377 59.6768 33.8438 60.4155 34.2699C61.1541 34.696 62.0301 34.9091 63.0433 34.9091C63.7157 34.9091 64.3312 34.8144 64.8899 34.625C65.4486 34.4356 65.9268 34.1515 66.3246 33.7727C66.7223 33.3939 67.0253 32.9299 67.2337 32.3807L72.8303 32.75C72.5462 34.0947 71.9638 35.2689 71.0831 36.2727C70.2119 37.267 69.085 38.0436 67.7024 38.6023C66.3293 39.1515 64.7431 39.4261 62.9439 39.4261ZM82.9581 26.3864V39H76.907V17.1818H82.674V21.0312H82.9297C83.4126 19.7623 84.2223 18.7585 85.3587 18.0199C86.495 17.2718 87.8729 16.8977 89.4922 16.8977C91.0073 16.8977 92.3284 17.2292 93.4553 17.892C94.5822 18.5549 95.4581 19.5019 96.0831 20.733C96.7081 21.9545 97.0206 23.4129 97.0206 25.108V39H90.9695V26.1875C90.9789 24.8523 90.638 23.8106 89.9467 23.0625C89.2554 22.3049 88.3037 21.9261 87.0916 21.9261C86.2772 21.9261 85.5575 22.1013 84.9325 22.4517C84.317 22.8021 83.834 23.3134 83.4837 23.9858C83.1428 24.6487 82.9676 25.4489 82.9581 26.3864ZM108.011 39.4119C106.619 39.4119 105.379 39.1705 104.29 38.6875C103.201 38.1951 102.339 37.4706 101.705 36.5142C101.08 35.5483 100.767 34.3456 100.767 32.9062C100.767 31.6941 100.99 30.6761 101.435 29.8523C101.88 29.0284 102.486 28.3655 103.253 27.8636C104.02 27.3617 104.891 26.983 105.866 26.7273C106.851 26.4716 107.884 26.2917 108.963 26.1875C110.232 26.0549 111.255 25.9318 112.031 25.8182C112.808 25.6951 113.371 25.5152 113.722 25.2784C114.072 25.0417 114.247 24.6913 114.247 24.2273V24.142C114.247 23.2424 113.963 22.5464 113.395 22.054C112.836 21.5616 112.041 21.3153 111.009 21.3153C109.92 21.3153 109.053 21.5568 108.409 22.0398C107.765 22.5133 107.339 23.1098 107.131 23.8295L101.534 23.375C101.818 22.0492 102.377 20.9034 103.21 19.9375C104.044 18.9621 105.118 18.214 106.435 17.6932C107.76 17.1629 109.295 16.8977 111.037 16.8977C112.249 16.8977 113.409 17.0398 114.517 17.3239C115.634 17.608 116.624 18.0483 117.486 18.6449C118.357 19.2415 119.044 20.0085 119.545 20.946C120.047 21.8741 120.298 22.9867 120.298 24.2841V39H114.56V35.9744H114.389C114.039 36.6562 113.57 37.2576 112.983 37.7784C112.396 38.2898 111.69 38.6922 110.866 38.9858C110.043 39.2699 109.091 39.4119 108.011 39.4119ZM109.744 35.2358C110.634 35.2358 111.42 35.0606 112.102 34.7102C112.784 34.3504 113.319 33.8674 113.707 33.2614C114.096 32.6553 114.29 31.9687 114.29 31.2017V28.8864C114.1 29.0095 113.84 29.1231 113.509 29.2273C113.187 29.322 112.822 29.4119 112.415 29.4972C112.008 29.5729 111.6 29.6439 111.193 29.7102C110.786 29.767 110.417 29.8191 110.085 29.8665C109.375 29.9706 108.755 30.1364 108.224 30.3636C107.694 30.5909 107.282 30.8987 106.989 31.2869C106.695 31.6657 106.548 32.1392 106.548 32.7074C106.548 33.5312 106.847 34.161 107.443 34.5966C108.049 35.0227 108.816 35.2358 109.744 35.2358ZM131.044 26.3864V39H124.993V9.90909H130.874V21.0312H131.129C131.622 19.7434 132.417 18.7348 133.516 18.0057C134.614 17.267 135.992 16.8977 137.649 16.8977C139.164 16.8977 140.485 17.2292 141.612 17.892C142.749 18.5455 143.629 19.4877 144.254 20.7188C144.889 21.9403 145.201 23.4034 145.192 25.108V39H139.141V26.1875C139.15 24.8428 138.809 23.7964 138.118 23.0483C137.436 22.3002 136.48 21.9261 135.249 21.9261C134.425 21.9261 133.696 22.1013 133.061 22.4517C132.436 22.8021 131.944 23.3134 131.584 23.9858C131.233 24.6487 131.054 25.4489 131.044 26.3864Z" fill="white"/>
<rect x="5" y="2" width="5" height="10" fill="white"/>
<rect x="5" y="37" width="5" height="10" fill="white"/>
<rect x="17" y="2" width="5" height="10" fill="white"/>
<rect x="17" y="37" width="5" height="10" fill="white"/>
</svg>
